<?xml version="1.0" encoding="UTF-8" standalone="no"?><!DOCTYPE svg PUBLIC "-//W3C//DTD SVG 1.1//EN" "http://www.w3.org/Graphics/SVG/1.1/DTD/svg11.dtd"><svg width="100%" height="100%" viewBox="0 0 334 334" version="1.1" xmlns="http://www.w3.org/2000/svg" xmlns:xlink="http://www.w3.org/1999/xlink" xml:space="preserve" xmlns:serif="http://www.serif.com/" style="fill-rule:evenodd;clip-rule:evenodd;stroke-linejoin:round;stroke-miterlimit:2;"><g id="Capa-1" serif:id="Capa 1"><path d="M94.939,201.729c2.163,-3.748 4.24,-7.348 6.284,-10.892c-3.675,-2.115 -7.133,-4.104 -10.693,-6.152c-2.127,3.694 -4.162,7.228 -6.269,10.889c3.7,2.132 7.106,4.096 10.678,6.155m170.081,41.828c-5.743,3.437 -11.641,4.417 -17.817,4.13c-1.654,-0.077 -3.152,0.104 -3.062,2.301c0.266,6.462 -0.563,12.694 -4.133,18.563c8.546,-2.563 22.189,-16.183 25.012,-24.994m-201.848,17.507c10.005,-17.33 19.851,-34.384 29.825,-51.66c-4.846,-2.802 -9.543,-5.518 -14.41,-8.332c-9.976,17.28 -19.852,34.385 -29.826,51.663c4.87,2.815 9.518,5.501 14.411,8.329m11.995,-122.065c0.044,26.947 22.138,48.963 49.042,48.869c26.864,-0.094 48.68,-22.033 48.663,-48.937c-0.018,-27.06 -21.87,-48.825 -48.984,-48.786c-26.864,0.038 -48.764,21.998 -48.721,48.854m97.131,-29.789c1.504,3.173 3.04,5.817 4.014,8.654c0.805,2.345 2.054,2.868 4.39,2.86c23.973,-0.09 47.947,-0.061 71.921,-0.039c1.165,0.001 2.395,0.046 3.48,0.412c1.719,0.58 2.753,2.117 2.172,3.761c-0.456,1.29 -1.763,2.416 -2.947,3.254c-0.63,0.446 -1.802,0.148 -2.729,0.148c-23.299,0.004 -46.598,0.003 -69.896,0.003l-2.963,0c0.335,4.116 0.632,7.777 0.94,11.56l2.939,0c22.961,0 45.922,-0.001 68.883,0.001c0.844,0 1.704,-0.082 2.528,0.052c2.096,0.339 3.366,1.564 3.357,3.756c-0.008,2.191 -1.292,3.403 -3.386,3.733c-0.826,0.13 -1.685,0.052 -2.529,0.052c-23.214,0.002 -46.428,0.001 -69.642,0.001l-2.748,0c-1.031,4.011 -1.969,7.66 -2.971,11.56l2.938,0c24.143,0 48.286,-0 72.428,0.002c0.844,-0 1.694,-0.039 2.531,0.044c1.923,0.192 3.109,1.278 3.347,3.194c0.251,2.022 -0.63,3.5 -2.613,4.054c-1.031,0.288 -2.165,0.289 -3.252,0.29c-24.565,0.014 -49.13,0.096 -73.693,-0.078c-3.81,-0.028 -6.459,0.567 -8.269,4.288c-1.237,2.544 -3.404,4.635 -5.408,7.26l3.456,-0c20.344,-0 40.688,-0.001 61.032,0.002c0.843,0 1.698,-0.044 2.528,0.072c2.119,0.294 3.401,1.506 3.405,3.697c0.004,2.174 -1.212,3.447 -3.361,3.719c-0.999,0.126 -2.021,0.1 -3.033,0.1c-23.468,0.005 -46.935,-0.031 -70.402,0.072c-1.808,0.007 -3.811,0.634 -5.384,1.555c-10.587,6.197 -21.906,9.049 -34.16,7.895c-2.806,-0.264 -5.596,-0.704 -8.5,-1.078c-0.046,0.894 -0.112,1.56 -0.112,2.226c-0.005,25.156 0.025,50.312 -0.052,75.467c-0.008,2.336 0.838,2.776 2.957,2.77c23.129,-0.065 46.259,-0.041 69.389,-0.041c10.889,-0 21.779,0.051 32.668,-0.017c9.822,-0.061 17.934,-6.124 20.2,-15.282c0.677,-2.739 0.705,-5.677 0.752,-8.528c0.116,-6.965 3.653,-10.545 10.667,-10.569c0.76,-0.003 1.52,0.001 2.279,-0.001c12.55,-0.034 21.448,-8.774 21.455,-21.301c0.035,-57.15 0.003,-114.298 0.065,-171.447c0.002,-2.297 -0.736,-2.79 -2.9,-2.787c-51.578,0.056 -103.155,0.059 -154.732,-0.008c-2.321,-0.003 -2.81,0.76 -2.792,2.9c0.09,11.396 0.04,22.792 0.048,34.188c0,0.734 0.078,1.469 0.122,2.23c4.149,-0.538 8.123,-1.055 12.338,-1.602l-0,-2.476c0,-5.319 -0.029,-10.637 0.011,-15.955c0.032,-4.226 2.281,-6.557 6.483,-6.829c0.589,-0.038 1.182,-0.024 1.772,-0.024c8.611,-0.001 17.221,-0.001 25.832,-0c0.337,-0 0.675,-0.007 1.012,0.004c2.994,0.092 4.707,1.472 4.718,3.794c0.012,2.352 -1.672,3.77 -4.686,3.782c-8.188,0.032 -16.377,0.012 -24.565,0.013l-2.772,0l-0,17.741l119.779,0l0,-17.741l-3.456,0c-23.13,-0.001 -46.26,0.007 -69.39,-0.012c-3.097,-0.003 -4.66,-1.327 -4.666,-3.755c-0.006,-2.422 1.571,-3.807 4.641,-3.81c24.565,-0.024 49.129,-0.039 73.694,0.011c4.697,0.01 6.937,2.399 6.966,7.099c0.037,5.909 0.013,11.818 0.009,17.728c-0.004,6.304 -2.002,8.286 -8.346,8.286c-31.318,0.001 -62.636,0.001 -93.954,0.001l-2.813,0c3.894,3.307 7.666,6.283 11.144,9.571c1.484,1.403 2.859,1.968 4.861,1.963c27.772,-0.058 55.545,-0.041 83.318,-0.037c4.064,-0 5.701,1.063 5.754,3.701c0.055,2.717 -1.694,3.889 -5.832,3.889c-25.663,0.002 -51.325,0.002 -76.987,0.002l-3.282,-0m-62.88,-72.207l162.585,0c6.929,2.443 6.795,8.347 6.511,14.247c1.671,-0 2.931,-0.002 4.191,-0c6.906,0.01 10.056,3.152 10.057,10.053c0.003,39.587 0.001,79.173 -0.001,118.759c0,0.76 0.08,1.542 -0.072,2.273c-0.432,2.077 -1.716,3.284 -3.9,3.202c-2.06,-0.078 -3.238,-1.301 -3.566,-3.285c-0.136,-0.823 -0.054,-1.684 -0.054,-2.528c-0.002,-38.404 -0.001,-76.81 -0.001,-115.214c-0,-5.989 -0,-5.99 -6.003,-5.592c-0.145,0.01 -0.281,0.158 -0.652,0.38l0,2.851c0,24.562 0.001,49.124 0,73.686c0,27.601 0.002,55.202 -0.001,82.803c-0.001,13.178 -3.34,25.41 -10.985,36.208c-12.688,17.924 -30.176,27.065 -52.116,27.194c-29.118,0.171 -58.24,0.043 -87.36,0.043l-3.119,0c-0,1.192 -0.001,2.026 -0,2.86c0.009,4.459 -0.161,3.782 3.813,3.783c50.896,0.011 101.793,0.007 152.69,0.007c3.734,0 3.734,-0.001 3.734,-3.607c0.001,-28.107 -0.001,-56.214 0.004,-84.321c0,-3.225 1.307,-4.955 3.719,-4.997c2.435,-0.044 3.867,1.718 3.869,4.862c0.007,28.867 0.013,57.734 -0.006,86.6c-0.003,5.572 -3.45,9.048 -8.982,9.05c-52.501,0.014 -105.002,0.014 -157.502,-0.001c-5.456,-0.001 -8.796,-3.353 -8.922,-8.828c-0.041,-1.742 -0.007,-3.485 -0.007,-5.408c-1.455,0 -2.545,0.001 -3.633,0c-7.758,-0.003 -10.717,-2.952 -10.718,-10.693c-0.002,-21.524 -0.001,-43.047 -0.001,-64.571l-0,-2.731c-0.275,-0.02 -0.551,-0.04 -0.827,-0.06c-0.384,1.153 -0.832,2.29 -1.137,3.463c-0.451,1.739 -0.403,3.731 -1.255,5.223c-10.025,17.578 -20.17,35.088 -30.304,52.604c-2.456,4.244 -5.431,5.004 -9.738,2.538c-4.902,-2.808 -9.783,-5.652 -14.673,-8.481c-4.991,-2.887 -5.699,-5.554 -2.794,-10.588c9.316,-16.138 18.615,-32.287 27.975,-48.399c1.699,-2.926 2.787,-6.464 6.64,-7.548c0.258,-0.072 0.449,-0.484 0.615,-0.771c2.401,-4.15 4.792,-8.305 7.217,-12.513c-0.524,-0.586 -0.957,-1.092 -1.414,-1.576c-26.948,-28.59 -18.04,-74.178 17.73,-90.501c1.598,-0.729 2.007,-1.599 1.998,-3.232c-0.061,-12.154 0.102,-24.311 -0.096,-36.462c-0.084,-5.155 1.612,-8.819 6.491,-10.782" style="fill:#ffd100;fill-rule:nonzero;"/><path d="M190.969,216.265c20.498,0 40.996,-0 61.494,0.002c0.843,-0 1.697,-0.057 2.528,0.047c2.009,0.251 3.238,1.394 3.386,3.446c0.159,2.195 -1.031,3.502 -3.083,3.989c-0.803,0.191 -1.678,0.108 -2.519,0.108c-41.334,0.004 -82.667,0.004 -124.001,0.002c-0.759,-0 -1.528,0.048 -2.274,-0.054c-2.156,-0.296 -3.585,-1.94 -3.406,-3.984c0.188,-2.156 1.457,-3.332 3.598,-3.527c0.754,-0.069 1.518,-0.028 2.276,-0.028c20.668,-0.001 41.334,-0.001 62.001,-0.001" style="fill:#ffd100;fill-rule:nonzero;"/><path d="M202.166,204.691c-16.879,0 -33.758,0.001 -50.637,-0.002c-0.843,-0 -1.924,0.288 -2.481,-0.121c-1.187,-0.871 -2.793,-2.031 -2.934,-3.225c-0.14,-1.184 1.094,-2.788 2.142,-3.757c0.648,-0.599 2.074,-0.472 3.151,-0.473c33.843,-0.02 67.685,-0.018 101.527,-0.008c0.921,0 1.891,-0.032 2.753,0.232c1.932,0.588 2.908,1.987 2.679,4.034c-0.215,1.924 -1.392,3.016 -3.287,3.274c-0.747,0.102 -1.517,0.045 -2.276,0.045c-16.879,0.002 -33.758,0.001 -50.637,0.001" style="fill:#ffd100;fill-rule:nonzero;"/><path d="M174.478,235.383c15.183,0 30.365,-0.002 45.549,0.004c0.926,0.001 1.868,-0.039 2.775,0.111c1.909,0.318 2.987,1.544 3.09,3.45c0.103,1.91 -0.841,3.266 -2.707,3.757c-0.96,0.252 -2.002,0.261 -3.006,0.262c-30.45,0.012 -60.9,0.01 -91.35,0.01c-0.422,0 -0.844,0.012 -1.265,-0.005c-2.851,-0.118 -4.441,-1.448 -4.489,-3.746c-0.049,-2.394 1.588,-3.826 4.589,-3.83c15.605,-0.023 31.209,-0.011 46.814,-0.013" style="fill:#ffd100;fill-rule:nonzero;"/><path d="M123.785,182.871c-5.213,-1.248 -10.469,-2.344 -15.622,-3.803c-2.893,-0.82 -3.929,-2.93 -3.156,-5.128c0.806,-2.293 2.924,-2.961 5.911,-1.866c21.007,7.703 42.801,-3.818 47.849,-25.296c4.52,-19.23 -7.952,-38.509 -27.636,-42.717c-19.039,-4.071 -38.532,8.93 -41.99,28.075c-1.935,10.711 0.45,20.4 7.085,29.07c0.817,1.068 1.649,2.577 1.523,3.782c-0.12,1.144 -1.344,2.845 -2.344,3.055c-1.289,0.27 -3.324,-0.257 -4.194,-1.21c-4.569,-5.006 -7.516,-10.968 -9.095,-17.553c-6.752,-28.156 14.859,-54.476 43.882,-53.484c21.281,0.728 39.611,18.34 41.114,39.507c1.59,22.399 -13.573,42.322 -35.117,46.071c-2.652,0.462 -5.351,0.655 -8.028,0.972c-0.06,0.175 -0.121,0.35 -0.182,0.525" style="fill:#ffd100;fill-rule:nonzero;"/><path d="M105.187,141.761c4.87,5.174 9.582,10.177 14.672,15.583c8.705,-9.215 17.32,-18.333 25.939,-27.456c-0.61,-0.678 -1.777,-1.976 -3.017,-3.355c-0.78,0.733 -1.392,1.289 -1.983,1.866c-5.847,5.713 -11.679,11.442 -17.539,17.141c-2.76,2.684 -4.849,2.675 -7.646,0.001c-2.417,-2.312 -4.796,-4.664 -7.254,-7.059c-1.36,1.406 -2.514,2.598 -3.172,3.279m13.744,-2.622c6.552,-6.4 12.396,-12.108 18.239,-17.816c0.724,-0.708 1.422,-1.443 2.171,-2.123c2.187,-1.984 4.39,-2.103 6.527,-0.124c2.847,2.634 5.621,5.353 8.313,8.145c1.991,2.064 2,4.488 -0.065,6.528c-10.439,10.318 -20.916,20.597 -31.439,30.828c-2.074,2.016 -4.453,1.943 -6.54,-0.075c-6.428,-6.216 -12.824,-12.463 -19.162,-18.77c-2.232,-2.221 -2.141,-4.591 0.111,-6.887c2.48,-2.53 5.017,-5.005 7.579,-7.452c2.571,-2.456 4.796,-2.516 7.268,-0.005c2.364,2.401 4.53,4.999 6.998,7.751" style="fill:#ffd100;fill-rule:nonzero;"/></g></svg>