<?xml version="1.0" encoding="UTF-8" standalone="no"?><!DOCTYPE svg PUBLIC "-//W3C//DTD SVG 1.1//EN" "http://www.w3.org/Graphics/SVG/1.1/DTD/svg11.dtd"><svg width="100%" height="100%" viewBox="0 0 334 334" version="1.1" xmlns="http://www.w3.org/2000/svg" xmlns:xlink="http://www.w3.org/1999/xlink" xml:space="preserve" xmlns:serif="http://www.serif.com/" style="fill-rule:evenodd;clip-rule:evenodd;stroke-linejoin:round;stroke-miterlimit:2;"><g id="Capa-1" serif:id="Capa 1"><path d="M234.65,55.761l21.492,-0l-0,-8.151l-21.492,-0l-0,8.151Zm-38.259,208.95l-25.226,0l0,20.999l25.226,-0l0,-20.999Zm-59.419,21.066l25.274,0l0,-21.046l-25.274,0l0,21.046Zm93.993,-108.707c1.201,-0.626 1.933,-0.987 2.646,-1.381c7.846,-4.348 15.662,-8.753 23.556,-13.01c1.768,-0.954 2.374,-2.028 2.312,-4.048c-0.929,-30.086 -1.768,-60.174 -2.637,-90.262c-0.036,-1.235 -0.152,-2.467 -0.236,-3.782l-22.415,-0c-1.074,37.449 -2.144,74.74 -3.226,112.483m-30.264,-15.807c-1.226,0.63 -2.034,1.017 -2.816,1.451c-22.002,12.219 -44,24.447 -66.004,36.664c-4.8,2.665 -7.742,0.972 -7.753,-4.475c-0.019,-10.229 -0.006,-20.458 -0.006,-30.686l0,-2.908c-0.976,0.444 -1.583,0.671 -2.143,0.982c-21.42,11.897 -42.826,23.821 -64.278,35.664c-1.513,0.835 -1.81,1.815 -1.808,3.364c0.038,27.36 0.027,54.719 0.027,82.078l0,2.392l72.382,-0c0,-1.013 -0.001,-1.907 0,-2.801c0,-7.069 -0.017,-14.137 0.006,-21.206c0.013,-4.179 1.553,-5.723 5.743,-5.725c21.787,-0.014 43.575,-0.015 65.362,0.002c4.016,0.003 5.598,1.592 5.615,5.6c0.029,7.152 0.009,14.303 0.009,21.455l-0,2.597l72.27,-0l0,-124.416c-0.998,0.511 -1.798,0.89 -2.569,1.318c-18.447,10.238 -36.892,20.48 -55.337,30.722c-3.994,2.218 -7.953,4.5 -11.988,6.638c-3.269,1.733 -6.252,0.084 -6.662,-3.596c-0.118,-1.069 -0.049,-2.16 -0.049,-3.24c-0.003,-10.47 -0.001,-20.94 -0.001,-31.874m-150.305,133.155c-2.319,-1.369 -3.02,-3.411 -3.015,-6.062c0.06,-30.099 0.064,-60.199 -0.004,-90.298c-0.007,-2.957 1.118,-4.715 3.68,-6.13c24.572,-13.571 49.094,-27.234 73.633,-40.865c5.025,-2.791 7.939,-1.048 7.945,4.756c0.01,10.06 0.003,20.121 0.003,30.182l0,3.123c1.085,-0.571 1.872,-0.965 2.641,-1.391c21.712,-12.05 43.422,-24.104 65.132,-36.158c0.581,-0.322 1.157,-0.654 1.744,-0.964c3.967,-2.088 7.015,-0.35 7.04,4.144c0.058,10.31 0.02,20.621 0.021,30.931l0,3.555c2.875,-1.59 5.321,-3.325 8.035,-4.354c4.32,-1.639 5.277,-4.49 5.382,-8.934c1.029,-43.553 2.324,-87.101 3.556,-130.65c0.148,-5.264 1.34,-6.384 6.612,-6.385c8.647,-0.001 17.294,-0.006 25.942,0.002c4.35,0.005 5.74,1.273 5.866,5.532c0.802,27.092 1.58,54.185 2.365,81.278c0.294,10.131 0.587,20.261 0.897,30.928c2.919,-1.617 5.485,-3.041 8.055,-4.459c1.236,-0.681 2.443,-1.428 3.725,-2.008c3.078,-1.394 5.962,0.345 6.248,3.717c0.042,0.495 0.02,0.997 0.02,1.496c0,44.317 -0.014,88.635 0.038,132.953c0.003,2.65 -0.696,4.692 -3.015,6.061l-232.546,0Z" style="fill:#0081b4;fill-rule:nonzero;"/><path d="M234.983,55.428l20.826,-0l-0,-7.484l-20.826,-0l0,7.484Zm21.492,0.667l-22.159,-0l-0,-8.818l22.159,0l-0,8.818Zm-21.96,8.825l-3.201,111.593c0.219,-0.113 0.421,-0.216 0.609,-0.313c0.599,-0.307 1.066,-0.548 1.526,-0.803c2.224,-1.232 4.444,-2.468 6.665,-3.704c5.524,-3.076 11.235,-6.256 16.895,-9.308c1.656,-0.893 2.195,-1.838 2.136,-3.743c-0.698,-22.605 -1.356,-45.59 -1.992,-67.818l-0.644,-22.446c-0.024,-0.829 -0.084,-1.648 -0.148,-2.517c-0.023,-0.31 -0.046,-0.624 -0.068,-0.941l-21.778,-0Zm-3.9,112.707l3.253,-113.374l23.051,0l0.02,0.312c0.026,0.424 0.057,0.838 0.087,1.248c0.064,0.875 0.125,1.702 0.149,2.546l0.644,22.446c0.637,22.228 1.295,45.212 1.993,67.816c0.066,2.158 -0.607,3.337 -2.487,4.351c-5.655,3.05 -11.365,6.229 -16.887,9.303c-2.221,1.236 -4.442,2.474 -6.665,3.706c-0.466,0.257 -0.94,0.501 -1.545,0.811c-0.325,0.167 -0.688,0.354 -1.109,0.573l-0.504,0.262Zm-59.117,107.75l24.559,-0l0,-20.332l-24.559,-0l0,20.332Zm25.226,0.666l-25.893,0l0,-21.665l25.893,-0l0,21.665Zm-59.419,-0.599l24.608,-0l-0,-20.379l-24.608,0l0,20.379Zm25.274,0.667l-25.94,-0l-0,-21.712l25.94,-0l0,21.712Zm-106.326,-0.655l71.716,-0l-0.004,-8.705c-0.003,-4.99 -0.006,-9.98 0.01,-14.97c0.014,-4.356 1.718,-6.055 6.076,-6.058c23.903,-0.015 45.284,-0.014 65.363,0.002c4.207,0.004 5.931,1.722 5.947,5.932c0.021,5.057 0.016,10.114 0.012,15.17l-0.003,8.55l71.604,-0l0,-123.539c-0.159,0.08 -0.314,0.157 -0.464,0.233c-0.582,0.292 -1.103,0.552 -1.611,0.834c-17.923,9.946 -35.844,19.898 -53.764,29.849l-1.572,0.873c-1.229,0.682 -2.454,1.37 -3.68,2.059c-2.712,1.523 -5.518,3.1 -8.314,4.581c-1.66,0.881 -3.321,0.97 -4.676,0.253c-1.381,-0.73 -2.26,-2.188 -2.473,-4.106c-0.089,-0.801 -0.075,-1.616 -0.061,-2.403c0.004,-0.292 0.01,-0.583 0.01,-0.874l-0.002,-31.329c-0.23,0.117 -0.445,0.225 -0.648,0.327c-0.642,0.324 -1.163,0.588 -1.672,0.871l-28.645,15.912c-12.453,6.918 -24.905,13.836 -37.359,20.751c-2.477,1.376 -4.56,1.648 -6.024,0.788c-1.45,-0.85 -2.219,-2.772 -2.224,-5.554c-0.014,-7.195 -0.011,-14.391 -0.008,-21.586l0.002,-11.494c-0.158,0.07 -0.304,0.133 -0.442,0.193c-0.479,0.209 -0.857,0.373 -1.206,0.567l-15.895,8.832c-15.849,8.809 -32.239,17.918 -48.383,26.831c-1.386,0.765 -1.639,1.635 -1.636,3.073c0.03,22.469 0.029,45.313 0.027,67.406l-0.001,16.731Zm72.382,0.667l-73.048,-0l0,-17.398c0.002,-22.093 0.004,-44.936 -0.027,-67.405c-0.003,-1.622 0.321,-2.741 1.981,-3.657c16.144,-8.913 32.532,-18.022 48.381,-26.831l15.896,-8.833c0.376,-0.209 0.767,-0.378 1.263,-0.594c0.265,-0.115 0.561,-0.244 0.903,-0.399l0.471,-0.215l-0.002,12.526c-0.002,7.195 -0.005,14.39 0.008,21.585c0.006,2.533 0.661,4.255 1.896,4.981c1.249,0.734 3.103,0.458 5.363,-0.797c12.454,-6.915 24.906,-13.833 37.358,-20.751l28.645,-15.912c0.516,-0.287 1.045,-0.554 1.696,-0.883c0.338,-0.17 0.709,-0.358 1.129,-0.573l0.486,-0.25l0.001,32.42c0,0.294 -0.005,0.59 -0.01,0.884c-0.013,0.768 -0.026,1.561 0.058,2.319c0.188,1.692 0.942,2.967 2.122,3.591c1.154,0.61 2.593,0.521 4.051,-0.252c2.79,-1.478 5.591,-3.052 8.301,-4.574c1.226,-0.689 2.453,-1.378 3.682,-2.062l1.572,-0.872c17.921,-9.951 35.841,-19.902 53.765,-29.85c0.516,-0.285 1.044,-0.55 1.635,-0.846c0.297,-0.149 0.61,-0.305 0.945,-0.477l0.485,-0.248l-0,125.293l-72.938,0l0.004,-9.216c0.004,-5.056 0.008,-10.112 -0.012,-15.167c-0.016,-3.837 -1.447,-5.265 -5.282,-5.268c-20.079,-0.017 -41.459,-0.017 -65.362,-0.002c-3.981,0.003 -5.397,1.414 -5.41,5.394c-0.016,4.989 -0.012,9.977 -0.009,14.967l0.003,9.372Zm-78.147,7.962l232.362,-0c1.946,-1.182 2.777,-2.9 2.773,-5.728c-0.042,-36.052 -0.04,-72.708 -0.038,-108.156l0.003,-25.188c0.005,-0.373 0.009,-0.725 -0.021,-1.078c-0.129,-1.514 -0.836,-2.754 -1.941,-3.402c-1.102,-0.647 -2.465,-0.66 -3.837,-0.039c-0.909,0.412 -1.802,0.921 -2.664,1.413c-0.346,0.196 -0.691,0.393 -1.038,0.584c-1.743,0.962 -3.484,1.926 -5.335,2.952l-3.199,1.771l-1.5,-51.817c-0.588,-20.312 -1.175,-40.624 -1.777,-60.936c-0.119,-4.035 -1.361,-5.203 -5.534,-5.207c-6.918,-0.007 -13.835,-0.006 -20.753,-0.004l-5.188,0.001c-5.08,0.002 -6.137,1.021 -6.279,6.062c-0.239,8.417 -0.479,16.834 -0.719,25.251c-0.986,34.543 -2.007,70.262 -2.837,105.397c-0.105,4.432 -1.077,7.523 -5.596,9.238c-1.827,0.692 -3.541,1.716 -5.356,2.8c-0.846,0.505 -1.721,1.027 -2.637,1.534l-0.494,0.273l-0,-4.12c-0,-2.978 0.002,-5.955 0.005,-8.934c0.007,-7.209 0.015,-14.663 -0.026,-21.995c-0.011,-2.024 -0.667,-3.529 -1.845,-4.236c-1.198,-0.718 -2.87,-0.582 -4.706,0.385c-0.407,0.215 -0.808,0.439 -1.209,0.665l-6.342,3.524c-19.773,10.976 -39.545,21.954 -59.319,32.93c-0.508,0.281 -1.022,0.548 -1.625,0.861l-1.512,0.791l0.001,-12.576c0.002,-7.094 0.004,-14.188 -0.004,-21.282c-0.002,-2.738 -0.676,-4.579 -1.946,-5.326c-1.256,-0.74 -3.159,-0.441 -5.504,0.862c-6.31,3.505 -12.62,7.013 -18.93,10.52c-17.92,9.962 -36.45,20.264 -54.703,30.344c-2.498,1.38 -3.515,3.072 -3.508,5.839c0.066,28.817 0.067,58.354 0.004,90.299c-0.005,2.826 0.825,4.545 2.774,5.728m232.545,0.666l-232.728,0l-0.078,-0.046c-2.205,-1.302 -3.186,-3.26 -3.18,-6.35c0.064,-31.944 0.062,-61.48 -0.004,-90.296c-0.006,-3.007 1.146,-4.928 3.852,-6.423c18.253,-10.081 36.783,-20.381 54.702,-30.344c6.31,-3.507 12.62,-7.015 18.931,-10.521c2.598,-1.442 4.672,-1.729 6.165,-0.852c1.506,0.885 2.272,2.87 2.275,5.898c0.007,7.096 0.006,14.19 0.004,21.284l-0.001,11.474l0.538,-0.281c0.596,-0.31 1.106,-0.574 1.608,-0.853c19.774,-10.975 39.547,-21.952 59.32,-32.93l6.339,-3.522c0.406,-0.228 0.812,-0.456 1.224,-0.672c2.051,-1.081 3.954,-1.211 5.36,-0.368c1.386,0.832 2.156,2.537 2.169,4.804c0.04,7.334 0.033,14.79 0.026,22c-0.003,2.978 -0.006,5.955 -0.006,8.933l0,2.986c0.73,-0.413 1.436,-0.835 2.124,-1.245c1.84,-1.1 3.579,-2.138 5.46,-2.852c4.188,-1.589 5.066,-4.368 5.166,-8.629c0.83,-35.137 1.851,-70.857 2.838,-105.402c0.24,-8.417 0.48,-16.833 0.718,-25.25c0.154,-5.454 1.452,-6.708 6.946,-6.709l5.188,-0.002c6.918,-0.001 13.836,-0.002 20.754,0.004c4.562,0.004 6.068,1.426 6.2,5.855c0.601,20.312 1.188,40.625 1.776,60.936l1.469,50.723l2.241,-1.242c1.851,-1.025 3.593,-1.99 5.336,-2.951c0.345,-0.19 0.687,-0.385 1.03,-0.581c0.876,-0.499 1.782,-1.015 2.719,-1.44c1.551,-0.704 3.173,-0.677 4.449,0.07c1.294,0.76 2.121,2.189 2.268,3.922c0.032,0.384 0.028,0.77 0.024,1.142l-0.003,0.382l-0.001,24.798c-0.002,35.448 -0.003,72.104 0.039,108.155c0.004,3.091 -0.977,5.049 -3.179,6.349l-0.078,0.046Z" style="fill:#0081b4;fill-rule:nonzero;"/><path d="M179.47,226.144c-0,-2.454 -0.051,-4.598 0.019,-6.738c0.044,-1.35 -0.582,-1.686 -1.803,-1.681c-7.376,0.031 -14.753,-0.006 -22.128,0.06c-0.557,0.005 -1.566,0.605 -1.588,0.975c-0.143,2.431 -0.074,4.875 -0.074,7.384l25.574,-0Zm-12.816,8.669c-5.232,-0 -10.464,0.033 -15.696,-0.011c-4.064,-0.034 -5.571,-1.536 -5.605,-5.566c-0.042,-4.817 -0.044,-9.634 0,-14.45c0.036,-3.988 1.606,-5.548 5.636,-5.56c10.464,-0.03 20.928,-0.032 31.392,0.001c4.007,0.013 5.57,1.59 5.605,5.589c0.041,4.816 0.043,9.634 -0.001,14.45c-0.036,4.016 -1.551,5.504 -5.635,5.537c-5.232,0.041 -10.464,0.01 -15.696,0.01" style="fill:#0081b4;fill-rule:nonzero;"/><path d="M154.229,225.81l24.907,0c-0.001,-0.629 -0.005,-1.239 -0.009,-1.834c-0.01,-1.588 -0.021,-3.088 0.028,-4.581c0.017,-0.502 -0.066,-0.841 -0.255,-1.034c-0.203,-0.209 -0.57,-0.303 -1.186,-0.303l-0.027,-0c-2.939,0.012 -5.879,0.014 -8.818,0.016c-4.362,0.002 -8.874,0.004 -13.308,0.044c-0.419,0.004 -1.192,0.482 -1.262,0.681c-0.104,1.8 -0.092,3.593 -0.078,5.493c0.003,0.504 0.006,1.01 0.008,1.518m25.574,0.667l-26.241,0l0,-0.333c0,-0.62 -0.004,-1.236 -0.008,-1.848c-0.013,-1.91 -0.026,-3.715 0.083,-5.556c0.036,-0.618 1.273,-1.282 1.917,-1.288c4.439,-0.04 8.951,-0.043 13.314,-0.045c2.939,-0.001 5.878,-0.003 8.817,-0.016c0.559,-0.005 1.253,0.053 1.693,0.505c0.321,0.331 0.466,0.828 0.443,1.521c-0.048,1.479 -0.038,2.973 -0.028,4.554c0.005,0.701 0.01,1.423 0.01,2.173l-0,0.333Zm-13.04,-16.941c-5.21,-0 -10.478,0.008 -15.774,0.023c-3.831,0.011 -5.268,1.429 -5.303,5.229c-0.043,4.67 -0.043,9.53 -0.001,14.445c0.034,3.833 1.414,5.203 5.276,5.235c3.66,0.031 7.382,0.024 10.983,0.018c3.14,-0.006 6.279,-0.007 9.419,-0c3.6,0.006 7.324,0.013 10.984,-0.017c3.882,-0.031 5.27,-1.393 5.305,-5.207c0.043,-4.67 0.043,-9.529 0.001,-14.444c-0.034,-3.821 -1.463,-5.246 -5.274,-5.258c-5.117,-0.016 -10.336,-0.024 -15.616,-0.024m-9.508,25.622c-2.096,-0 -4.208,-0.005 -6.3,-0.023c-4.236,-0.035 -5.9,-1.689 -5.936,-5.897c-0.042,-4.918 -0.042,-9.782 0,-14.456c0.038,-4.171 1.768,-5.877 5.968,-5.89c10.666,-0.031 21.229,-0.03 31.394,0.001c4.182,0.014 5.902,1.729 5.938,5.92c0.042,4.918 0.042,9.781 -0,14.455c-0.039,4.189 -1.712,5.834 -5.966,5.868c-3.665,0.029 -7.389,0.022 -10.991,0.016c-3.139,-0.006 -6.278,-0.005 -9.417,0c-1.545,0.004 -3.113,0.006 -4.69,0.006" style="fill:#0081b4;fill-rule:nonzero;"/><path d="M77.404,226.066l25.257,-0l0,-8.174l-25.257,0l0,8.174Zm12.456,8.747c-5.149,-0 -10.297,0.028 -15.445,-0.009c-4.296,-0.031 -5.631,-1.401 -5.647,-5.715c-0.018,-4.816 -0.027,-9.632 0.004,-14.448c0.024,-3.803 1.483,-5.386 5.213,-5.404c10.712,-0.054 21.425,-0.056 32.137,0.002c3.601,0.019 5.137,1.65 5.162,5.223c0.034,4.899 0.021,9.799 0.005,14.698c-0.013,4.216 -1.42,5.619 -5.734,5.645c-5.232,0.033 -10.464,0.008 -15.695,0.008" style="fill:#0081b4;fill-rule:nonzero;"/><path d="M77.737,225.733l24.591,0l-0,-7.508l-24.591,0l0,7.508Zm25.258,0.667l-25.924,-0l-0,-8.841l25.924,-0l-0,8.841Zm-12.897,-16.871c-5.307,0 -10.687,0.014 -16.111,0.04c-3.535,0.018 -4.858,1.393 -4.882,5.074c-0.032,5.024 -0.02,10.121 -0.004,14.445c0.016,4.146 1.208,5.353 5.316,5.383c3.598,0.026 7.258,0.02 10.798,0.014c3.142,-0.005 6.284,-0.004 9.428,-0.001c3.636,0.006 7.272,0.011 10.91,-0.011c4.128,-0.026 5.39,-1.268 5.403,-5.314c0.016,-5.238 0.028,-9.959 -0.005,-14.695c-0.024,-3.411 -1.469,-4.874 -4.831,-4.893c-5.233,-0.028 -10.589,-0.042 -16.022,-0.042m-9.508,25.627c-2.057,-0 -4.127,-0.004 -6.178,-0.019c-4.452,-0.032 -5.961,-1.557 -5.977,-6.046c-0.017,-4.326 -0.029,-9.425 0.004,-14.452c0.025,-4.001 1.684,-5.716 5.545,-5.736c10.978,-0.054 21.792,-0.054 32.14,0.002c3.721,0.02 5.467,1.785 5.493,5.554c0.034,4.74 0.022,9.462 0.006,14.702c-0.014,4.386 -1.602,5.95 -6.066,5.978c-3.639,0.023 -7.278,0.018 -10.916,0.012c-3.142,-0.004 -6.283,-0.005 -9.425,0c-1.524,0.003 -3.071,0.005 -4.626,0.005" style="fill:#0081b4;fill-rule:nonzero;"/><path d="M255.924,217.933l-25.247,-0l0,8.183l25.247,0l-0,-8.183Zm-12.433,16.88c-5.315,-0 -10.63,0.037 -15.944,-0.012c-4.104,-0.038 -5.484,-1.488 -5.498,-5.629c-0.016,-4.899 -0.028,-9.799 0.005,-14.698c0.025,-3.581 1.553,-5.215 5.15,-5.235c10.712,-0.058 21.425,-0.055 32.137,-0.003c3.738,0.018 5.201,1.597 5.225,5.392c0.032,4.983 0.038,9.965 -0.002,14.947c-0.029,3.645 -1.479,5.163 -5.13,5.216c-5.313,0.076 -10.629,0.019 -15.943,0.022" style="fill:#0081b4;fill-rule:nonzero;"/><path d="M231.011,225.783l24.58,0l-0,-7.516l-24.58,-0l0,7.516Zm25.246,0.667l-25.912,-0l-0,-8.85l25.912,-0l0,8.85Zm-12.314,8.03c1.501,-0 3.002,0.003 4.504,0.008c3.6,0.011 7.323,0.022 10.982,-0.031c3.428,-0.049 4.774,-1.418 4.802,-4.884c0.036,-4.54 0.036,-9.428 0.002,-14.943c-0.023,-3.624 -1.395,-5.043 -4.894,-5.061c-10.996,-0.054 -21.807,-0.054 -32.133,0.003c-3.354,0.019 -4.795,1.485 -4.819,4.905c-0.032,4.768 -0.021,9.476 -0.004,14.694c0.012,3.974 1.268,5.26 5.167,5.296c3.719,0.035 7.5,0.027 11.157,0.019c1.594,-0.003 3.189,-0.006 4.783,-0.006l0.453,0Zm8.984,0.683c-1.507,0 -3.004,-0.004 -4.482,-0.008c-1.652,-0.005 -3.303,-0.008 -4.954,-0.008c-1.594,-0 -3.189,0.003 -4.783,0.006c-3.659,0.008 -7.442,0.015 -11.165,-0.019c-4.288,-0.039 -5.813,-1.599 -5.827,-5.961c-0.017,-5.22 -0.028,-9.929 0.005,-14.702c0.026,-3.828 1.717,-5.545 5.481,-5.566c10.329,-0.056 21.143,-0.056 32.14,-0.002c3.871,0.019 5.532,1.73 5.557,5.723c0.035,5.519 0.034,10.409 -0.002,14.952c-0.031,3.833 -1.663,5.491 -5.458,5.545c-2.162,0.032 -4.346,0.04 -6.512,0.04" style="fill:#0081b4;fill-rule:nonzero;"/></g></svg>