<?xml version="1.0" encoding="UTF-8" standalone="no"?><!DOCTYPE svg PUBLIC "-//W3C//DTD SVG 1.1//EN" "http://www.w3.org/Graphics/SVG/1.1/DTD/svg11.dtd"><svg width="100%" height="100%" viewBox="0 0 334 334" version="1.1" xmlns="http://www.w3.org/2000/svg" xmlns:xlink="http://www.w3.org/1999/xlink" xml:space="preserve" xmlns:serif="http://www.serif.com/" style="fill-rule:evenodd;clip-rule:evenodd;stroke-linejoin:round;stroke-miterlimit:2;"><g id="Capa-1" serif:id="Capa 1"><path d="M251.107,236.136c9.883,0.276 18.133,-7.662 18.45,-17.75c0.315,-9.99 -7.766,-18.431 -17.858,-18.653c-9.851,-0.217 -18.252,7.869 -18.488,17.796c-0.24,10.079 7.689,18.323 17.896,18.607m-187.342,-18.106c0.057,9.999 8.119,18.06 18.116,18.116c10.039,0.055 18.299,-8.206 18.26,-18.261c-0.038,-10.027 -8.437,-18.311 -18.407,-18.157c-9.962,0.154 -18.027,8.368 -17.969,18.302m169.636,-104.608l0,3.183c0,11.883 0.188,23.771 -0.091,35.648c-0.113,4.789 1.77,7.554 5.911,9.555c7.575,3.66 15.552,5.981 23.804,7.19c10.488,1.537 21.041,2.633 31.733,3.94c-0,-6.464 0.757,-12.406 -0.153,-18.081c-2.115,-13.195 -5.066,-26.254 -7.588,-39.385c-0.322,-1.677 -1.026,-2.092 -2.632,-2.084c-11.793,0.062 -23.586,0.034 -35.378,0.034l-15.606,-0m69.562,96.406c-1.477,4.871 -3.98,9.147 -8.98,10.804c-3.192,1.058 -6.765,1.027 -10.18,1.339c-1.936,0.177 -4.328,-0.613 -5.726,0.275c-1.29,0.819 -1.514,3.302 -2.23,5.042c-4.282,10.413 -13.799,16.958 -24.521,16.875c-10.905,-0.085 -20.214,-6.563 -24.437,-17.005c-0.1,-0.247 -0.198,-0.495 -0.284,-0.746c-1.512,-4.412 -1.512,-4.412 -6.136,-4.412c-27.151,-0 -54.302,0.005 -81.453,-0.018c-1.225,-0 -2.792,0.164 -3.594,-0.492c-1.149,-0.938 -2.248,-2.494 -2.437,-3.91c-0.238,-1.775 1.146,-3.117 3.036,-3.444c1.039,-0.18 2.122,-0.132 3.185,-0.132c27.772,-0.006 55.545,-0.034 83.316,0.05c2.28,0.006 3.181,-0.651 3.723,-2.881c2.727,-11.224 13.212,-19.297 24.965,-19.439c11.669,-0.14 22.511,8.023 25.345,19.318c0.58,2.313 1.424,3.249 3.88,3.003c2.548,-0.255 5.144,0.025 7.712,-0.089c3.838,-0.169 6.728,-2.818 6.775,-6.499c0.114,-8.863 0.037,-17.729 0.037,-26.93c-4.656,-0.343 -9.218,-0.615 -13.768,-1.027c-12.024,-1.088 -23.99,-2.646 -35.468,-6.548c-4.578,-1.556 -8.978,-3.744 -13.273,-5.998c-4.933,-2.589 -7.03,-7.039 -7.031,-12.528c-0.003,-13.666 -0.04,-27.333 0.02,-41c0.022,-5.203 2.938,-7.999 8.142,-8.004c16.06,-0.018 32.12,-0.007 48.18,-0.007l2.894,0c-0.08,-6.42 -1.905,-8.248 -8.053,-8.248c-76.839,-0.001 -153.678,-0.001 -230.517,0c-6.37,0 -7.718,1.33 -7.718,7.587c-0.001,33.989 -0.002,67.978 -0,101.967c0,5.719 1.543,7.263 7.268,7.266c3.194,0.002 6.388,-0.015 9.582,-0.032c0.172,-0.001 0.344,-0.075 0.151,-0.03c1.682,-3.645 2.835,-7.363 4.927,-10.445c6.34,-9.346 15.449,-13.236 26.489,-11.169c10.687,2.001 17.605,8.691 20.433,19.275c0.52,1.946 1.322,2.562 3.247,2.442c2.474,-0.154 4.967,-0.068 7.45,-0.01c2.353,0.054 3.877,1.194 4.109,3.635c0.218,2.289 -1.248,4.055 -3.784,4.242c-2.736,0.201 -5.5,0.169 -8.245,0.061c-1.618,-0.064 -2.251,0.454 -2.676,2.079c-2.645,10.128 -9.095,16.593 -19.209,19.317c-13.136,3.538 -27.774,-4.868 -31.174,-18.065c-0.68,-2.637 -1.668,-3.645 -4.429,-3.361c-2.81,0.288 -5.674,0.12 -8.511,0.05c-8.245,-0.202 -13.568,-5.608 -13.602,-13.87c-0.043,-10.826 -0.01,-21.653 -0.01,-32.48c-0,-23.872 -0.004,-47.744 0.001,-71.616c0.002,-9.636 5.135,-14.848 14.749,-14.85c77.46,-0.014 154.92,-0.012 232.38,-0.002c8.664,0.002 13.176,3.874 14.852,12.44c3.335,17.045 6.725,34.08 10.106,51.116c0.082,0.414 0.324,0.796 0.492,1.194l-0,55.91Z" style="fill:#0081b4;fill-rule:nonzero;"/><path d="M92.101,154.896l27.479,0l0,-41.376l-27.479,-0l-0,41.376Zm-35.926,0.037l27.553,-0l0,-41.371l-27.553,-0l0,41.371Zm31.413,8.14c-10.46,-0 -20.919,0.01 -31.379,-0.004c-5.852,-0.008 -8.175,-2.344 -8.18,-8.234c-0.013,-13.742 -0.014,-27.484 0,-41.226c0.006,-5.818 2.396,-8.18 8.251,-8.181c21.096,-0.007 42.193,-0.007 63.289,-0c5.828,0.003 8.169,2.366 8.174,8.253c0.011,13.742 0.012,27.484 -0.001,41.225c-0.006,5.84 -2.351,8.157 -8.243,8.163c-10.638,0.012 -21.274,0.004 -31.911,0.004" style="fill:#0081b4;fill-rule:nonzero;"/><path d="M143.944,113.524l-0,41.377l27.624,0c-0,-2.829 -0.025,-5.476 0.007,-8.122c0.029,-2.479 -0.056,-4.977 0.235,-7.428c0.266,-2.255 1.896,-3.427 4.132,-3.243c2.094,0.172 3.374,1.467 3.548,3.642c0.077,0.97 0.058,1.95 0.06,2.926c0.006,4.053 0.002,8.107 0.002,12.252l27.742,0l0,-41.363l-27.773,0c-0,2.685 0.097,5.239 -0.027,7.782c-0.132,2.741 -2.076,4.299 -4.612,3.843c-2.491,-0.448 -3.212,-2.302 -3.29,-4.494c-0.082,-2.358 -0.018,-4.722 -0.018,-7.172l-27.63,0Zm31.505,49.548c-10.469,0 -20.937,0.009 -31.406,-0.002c-6.022,-0.007 -8.242,-2.198 -8.245,-8.138c-0.009,-13.842 -0.012,-27.684 0.001,-41.527c0.005,-5.614 2.333,-7.972 7.895,-7.975c21.293,-0.012 42.585,-0.012 63.877,0c5.385,0.004 7.837,2.369 7.856,7.755c0.049,14.02 0.046,28.04 0.002,42.059c-0.017,5.54 -2.408,7.814 -8.041,7.824c-10.646,0.016 -21.293,0.004 -31.939,0.004" style="fill:#0081b4;fill-rule:nonzero;"/><path d="M233.017,178.644c1.455,0.078 2.786,0.068 4.093,0.236c2.062,0.267 3.13,1.642 3.211,3.604c0.086,2.078 -0.899,3.771 -3.081,3.942c-2.882,0.225 -5.812,0.22 -8.692,-0.028c-2.037,-0.174 -2.998,-1.804 -2.967,-3.775c0.031,-1.971 1.037,-3.399 3.083,-3.71c1.474,-0.224 2.986,-0.193 4.353,-0.269" style="fill:#0081b4;fill-rule:nonzero;"/></g></svg>