<?xml version="1.0" encoding="UTF-8" standalone="no"?><!DOCTYPE svg PUBLIC "-//W3C//DTD SVG 1.1//EN" "http://www.w3.org/Graphics/SVG/1.1/DTD/svg11.dtd"><svg width="100%" height="100%" viewBox="0 0 334 334" version="1.1" xmlns="http://www.w3.org/2000/svg" xmlns:xlink="http://www.w3.org/1999/xlink" xml:space="preserve" xmlns:serif="http://www.serif.com/" style="fill-rule:evenodd;clip-rule:evenodd;stroke-linejoin:round;stroke-miterlimit:2;"><g id="Capa-1" serif:id="Capa 1"><path d="M301.879,51.026c-11.367,-4.801 -25.586,2.984 -26.578,14.406c10.986,4.758 24.259,-2.346 26.578,-14.406m-63.125,91.028c10.883,1.625 21.769,-6.782 23.567,-18.068c0.98,-6.151 0.664,-6.481 -5.412,-5.666c-11.239,1.506 -20.016,12.864 -18.155,23.734m2.512,-54.107c2.673,-12.611 -11.093,-26.353 -23.593,-23.55c-1.963,13.025 11.069,26.033 23.593,23.55m72.757,-36.907c-0.552,1.913 -1.034,3.848 -1.665,5.734c-5.65,16.883 -23.741,25.756 -40.508,19.77c-1.894,-0.676 -3.08,-0.486 -4.535,0.846c-9.981,9.14 -17.642,19.875 -22.915,32.856c0.959,-0.333 1.612,-0.512 2.227,-0.78c6.896,-3.014 14.004,-3.664 21.358,-2.069c2.958,0.641 4.59,2.323 5.307,5.285c4.663,19.274 -8.892,38.678 -28.604,40.834c-1.883,0.206 -3.772,0.361 -6.007,0.572c0.854,4.212 1.766,8.202 2.446,12.232c0.529,3.127 -1.357,5.754 -4.346,6.488c-2.711,0.665 -5.6,-0.945 -6.65,-3.735c-0.235,-0.625 -0.455,-1.277 -0.541,-1.935c-1.017,-7.77 -2.02,-15.541 -2.99,-23.317c-0.115,-0.926 -0.015,-1.879 -0.015,-2.819c-6.08,0.012 -9.822,3.6 -9.924,9.412c-0.182,10.445 -0.052,20.9 -0.488,31.334c-0.354,8.469 -2.525,16.642 -5.689,24.513c-1.318,3.281 -4.389,4.659 -7.438,3.517c-2.884,-1.08 -4.587,-4.206 -3.322,-7.303c5.322,-13.033 5.705,-26.675 5.425,-40.433c-0.059,-2.875 -0.009,-5.752 -0.009,-8.628c0.001,-10.544 1.654,-14.174 9.315,-20.741c-4.738,-6.367 -9.143,-12.989 -14.257,-19.007c-9.744,-11.468 -28.78,-7.519 -33.942,7.346c-2.545,7.329 -3.299,15.31 -4.505,23.051c-0.263,1.692 1.085,3.601 1.539,5.447c0.501,2.036 1.06,4.104 1.171,6.18c0.148,2.773 -1.801,4.891 -4.542,5.463c-2.611,0.545 -5.286,-0.821 -6.3,-3.361c-0.456,-1.146 -0.63,-2.402 -0.946,-3.604c-2.803,-10.675 -9.312,-18.791 -17.872,-25.362c-11.652,-8.944 -24.813,-14.132 -39.58,-14.256c-21.932,-0.186 -42.709,-4.925 -62.352,-14.666c-0.332,-0.164 -0.696,-0.263 -1.568,-0.588c0.48,2.271 0.782,4.21 1.306,6.086c5.174,18.52 21.873,31.267 41.026,31.351c4.218,0.019 8.436,-0.027 12.654,0.012c3.936,0.036 6.568,2.317 6.632,5.661c0.067,3.452 -2.631,5.932 -6.727,5.801c-7.645,-0.245 -15.374,-0.069 -22.907,-1.173c-11.232,-1.646 -20.646,-7.321 -28.558,-15.444c-0.924,-0.95 -1.827,-1.92 -3.318,-2.664c0.901,3.234 1.581,6.551 2.739,9.691c7.151,19.391 25.4,32.336 46.069,32.693c7.762,0.134 15.529,0.018 23.294,0.067c1.229,0.008 2.515,0.101 3.672,0.473c2.463,0.792 3.981,3.32 3.731,5.84c-0.255,2.566 -2.215,5.052 -4.746,5.01c-14.692,-0.242 -29.568,1.969 -43.945,-2.849c-3.674,-1.231 -7.213,-2.864 -11.252,-4.488c8.183,9.567 17.648,16.684 28.627,21.835c11.654,5.469 23.967,7.826 36.779,7.85c5.082,0.009 10.162,-0.033 15.243,0.016c3.871,0.037 6.285,2.194 6.359,5.543c0.073,3.289 -2.356,5.648 -6.101,5.925c-0.095,0.008 -0.193,0.023 -0.287,0.011c-10.362,-1.333 -19.515,2.049 -28.858,6.213c-14.94,6.659 -30.945,9.234 -47.304,9.394c-3.828,0.037 -7.656,0.005 -11.974,0.005c8.254,16.353 16.341,32.375 24.536,48.613c7.545,-5.838 14.879,-11.526 22.227,-17.196c11.216,-8.654 23.935,-13.254 38.075,-13.383c14.433,-0.132 27.839,-3.608 40.205,-11.048c2.431,-1.462 4.84,-1.843 7.219,-0.03c1.95,1.485 2.787,3.623 1.938,5.857c-0.563,1.481 -1.754,3.035 -3.093,3.862c-12.899,7.962 -26.981,12.541 -42.128,12.632c-14.641,0.089 -27.363,4.433 -38.609,13.796c-7.508,6.249 -15.414,12.021 -23.164,17.978c-4.494,3.454 -7.871,2.708 -10.419,-2.328c-10.199,-20.159 -20.385,-40.324 -30.545,-60.502c-2.846,-5.652 -0.343,-9.614 5.939,-9.772c11.584,-0.29 23.207,-0.215 34.733,-1.222c7.539,-0.658 14.935,-2.955 22.396,-4.518c-0.043,-0.286 -0.086,-0.572 -0.128,-0.858c-3.419,-1.073 -6.93,-1.917 -10.242,-3.254c-36.528,-14.747 -57.946,-41.47 -62.226,-80.781c-1.466,-13.463 -0.605,-27.189 -0.629,-40.795c-0.009,-5.118 4.792,-7.357 9.495,-4.544c12.268,7.338 25.287,12.993 39.358,15.422c10.245,1.769 20.723,2.222 31.107,3.15c20.013,1.788 36.979,9.903 50.933,24.336c0.52,0.538 0.864,1.248 1.29,1.877c0.228,-0.123 0.458,-0.246 0.686,-0.369c0.377,-2.03 0.756,-4.061 1.13,-6.092c3.828,-20.822 25.792,-33.039 44.634,-24.836c5.902,2.569 10.444,6.696 13.891,12.072c4.259,6.642 9.238,12.667 14.899,17.796c2.86,-9.391 5.728,-18.806 8.63,-28.334c-1.793,-0.429 -4.12,-0.845 -6.358,-1.544c-16.318,-5.089 -26.154,-21.962 -22.676,-38.686c0.72,-3.467 2.46,-5.498 6.1,-6.268c15.927,-3.365 32.052,5.1 38.1,20.186c0.352,0.878 0.698,1.76 1.124,2.836c3.736,-3.452 7.379,-6.745 10.908,-10.156c0.525,-0.508 0.572,-1.558 0.744,-2.377c4.34,-20.775 26.4,-31.753 45.155,-22.338c2.022,1.015 3.567,2.981 5.333,4.506l-0,5.177Z" style="fill:#ffd100;fill-rule:nonzero;"/><path d="M181.612,130.296c-0.062,-3.206 2.293,-5.702 5.468,-5.796c3.262,-0.097 5.963,2.484 5.947,5.682c-0.016,3.082 -2.586,5.651 -5.691,5.686c-3.139,0.036 -5.664,-2.422 -5.724,-5.572" style="fill:#ffd100;fill-rule:nonzero;"/><path d="M191.715,232.327c-3.16,-0.029 -5.614,-2.505 -5.618,-5.672c-0.004,-3.115 2.517,-5.706 5.601,-5.756c3.185,-0.052 5.835,2.652 5.764,5.882c-0.069,3.161 -2.571,5.576 -5.747,5.546" style="fill:#ffd100;fill-rule:nonzero;"/></g></svg>