<?xml version="1.0" encoding="UTF-8" standalone="no"?><!DOCTYPE svg PUBLIC "-//W3C//DTD SVG 1.1//EN" "http://www.w3.org/Graphics/SVG/1.1/DTD/svg11.dtd"><svg width="100%" height="100%" viewBox="0 0 334 334" version="1.1" xmlns="http://www.w3.org/2000/svg" xmlns:xlink="http://www.w3.org/1999/xlink" xml:space="preserve" xmlns:serif="http://www.serif.com/" style="fill-rule:evenodd;clip-rule:evenodd;stroke-linejoin:round;stroke-miterlimit:2;"><g id="Capa-1" serif:id="Capa 1"><path d="M39.223,74.275l34.314,0c-0,-6.875 0.105,-13.614 -0.026,-20.348c-0.172,-8.721 -7.161,-16.038 -15.716,-16.675c-8.929,-0.666 -17.402,5.15 -18.393,13.882c-0.859,7.573 -0.179,15.32 -0.179,23.141m77.679,220.527l3.478,0c51.723,0 103.445,0 155.168,-0.002c0.94,-0 1.882,-0.004 2.82,-0.054c7.823,-0.418 14.997,-6.635 15.739,-14.428c0.539,-5.671 0.105,-11.435 0.105,-17.278l-170.234,-0c-0.699,10.879 2.212,22.298 -7.076,31.762m-42.711,-257.826c6.051,6.545 7.292,13.709 7.27,21.488c-0.126,44.88 -0.085,89.76 -0.093,134.64c-0.005,28.132 -0.049,56.265 0.035,84.397c0.028,9.56 7.966,17.232 17.362,17.138c9.488,-0.095 17.053,-7.745 17.11,-17.348c0.034,-5.833 -0.018,-11.667 0.019,-17.501c0.021,-3.32 1.463,-4.788 4.769,-4.98c0.844,-0.048 1.694,-0.012 2.54,-0.012c49.198,-0.001 98.395,-0.001 147.592,-0.001l3.714,0c0.057,-1.267 0.134,-2.185 0.134,-3.104c0.006,-65.297 0.008,-130.595 -0.012,-195.892c-0,-1.777 -0.034,-3.605 -0.426,-5.324c-1.95,-8.557 -8.795,-13.494 -18.618,-13.495c-59.263,-0.01 -118.526,-0.006 -177.788,-0.006l-3.608,0Zm208.274,218.04c5.088,-0 9.774,-0.022 14.46,0.006c4.226,0.025 5.283,1.117 5.289,5.411c0.008,5.834 0.078,11.67 -0.03,17.502c-0.257,13.867 -11.24,24.658 -25.24,24.682c-32.175,0.055 -64.351,0.018 -96.526,0.018c-26.907,0 -53.813,0.005 -80.721,-0.002c-15.265,-0.004 -26.164,-10.829 -26.17,-26.105c-0.022,-63.424 -0.01,-126.847 -0.01,-190.271l0,-3.896c-1.178,-0.055 -2.17,-0.143 -3.163,-0.143c-11.196,-0.01 -22.391,0 -33.587,-0.011c-4.558,-0.005 -5.638,-1.101 -5.642,-5.673c-0.007,-7.151 0.128,-14.306 -0.03,-21.454c-0.297,-13.466 10.498,-25.837 25.976,-25.846c66.421,-0.038 132.842,-0.024 199.262,-0.01c13.418,0.003 23.488,8.196 25.772,21.004c0.376,2.11 0.346,4.308 0.347,6.466c0.017,64.741 0.013,129.482 0.013,194.224l0,4.098Z" style="fill:#ffd100;fill-rule:nonzero;"/><path d="M39.557,73.942l33.646,-0c0.002,-2.014 0.011,-4.014 0.02,-6.008c0.023,-4.597 0.045,-9.351 -0.046,-14c-0.167,-8.536 -6.934,-15.718 -15.406,-16.35c-9.173,-0.687 -17.095,5.286 -18.037,13.588c-0.593,5.219 -0.447,10.647 -0.306,15.896c0.061,2.249 0.123,4.572 0.129,6.874m34.313,0.666l-34.98,0l-0,-0.333c-0,-2.403 -0.065,-4.835 -0.128,-7.188c-0.142,-5.273 -0.289,-10.725 0.309,-15.991c0.984,-8.659 9.227,-14.876 18.749,-14.177c8.811,0.657 15.85,8.125 16.024,17.002c0.091,4.657 0.069,9.415 0.046,14.016c-0.01,2.102 -0.02,4.213 -0.02,6.338l-0,0.333Zm1.071,-37.298c6.058,6.906 6.872,14.552 6.853,21.155c-0.097,34.704 -0.095,69.989 -0.092,104.113c0.001,10.176 0.001,20.35 -0.001,30.526l-0.007,19.82c-0.011,21.166 -0.022,43.052 0.042,64.577c0.013,4.493 1.799,8.724 5.028,11.911c3.242,3.201 7.495,4.928 11.998,4.894c9.353,-0.093 16.724,-7.568 16.78,-17.017c0.017,-2.889 0.013,-5.778 0.009,-8.667c-0.005,-2.944 -0.008,-5.889 0.01,-8.833c0.022,-3.471 1.59,-5.109 5.084,-5.311c0.604,-0.034 1.216,-0.028 1.807,-0.02c0.25,0.003 0.501,0.006 0.751,0.006l150.988,-0c0.016,-0.309 0.032,-0.597 0.046,-0.87c0.04,-0.7 0.073,-1.304 0.073,-1.901c0.005,-65.297 0.008,-130.595 -0.012,-195.892c-0.001,-1.733 -0.033,-3.565 -0.417,-5.249c-1.918,-8.41 -8.586,-13.236 -18.294,-13.237c-43.969,-0.007 -87.938,-0.007 -131.907,-0.005l-48.739,0Zm23.651,257.664c-4.609,-0 -8.969,-1.802 -12.297,-5.087c-3.356,-3.313 -5.212,-7.711 -5.226,-12.384c-0.064,-21.527 -0.052,-43.413 -0.042,-64.579l0.008,-19.82c0.002,-10.176 0.001,-20.35 0,-30.526c-0.002,-34.124 -0.005,-69.41 0.092,-104.114c0.02,-6.987 -0.836,-14.398 -7.18,-21.26l-0.517,-0.56l50.25,-0.001c43.969,-0.001 87.938,-0.002 131.907,0.005c10.046,0.002 16.951,5.016 18.944,13.755c0.399,1.752 0.433,3.627 0.434,5.398c0.02,65.297 0.017,130.595 0.012,195.892c-0,0.615 -0.034,1.228 -0.074,1.937c-0.02,0.364 -0.041,0.752 -0.06,1.182l-0.015,0.318l-151.625,0.001c-0.253,-0 -0.506,-0.003 -0.76,-0.007c-0.58,-0.007 -1.179,-0.014 -1.76,0.02c-3.145,0.182 -4.436,1.529 -4.456,4.648c-0.018,2.943 -0.014,5.886 -0.01,8.83c0.004,2.89 0.008,5.78 -0.008,8.671c-0.059,9.817 -7.72,17.583 -17.441,17.68c-0.059,0.001 -0.117,0.001 -0.176,0.001m19.088,-0.505l157.868,-0.002c0.949,-0 1.877,-0.004 2.803,-0.053c7.803,-0.418 14.722,-6.756 15.424,-14.128c0.37,-3.894 0.278,-7.93 0.187,-11.832c-0.038,-1.662 -0.078,-3.377 -0.083,-5.082l-169.588,0c-0.137,2.375 -0.109,4.812 -0.082,7.173c0.094,8.188 0.19,16.648 -6.529,23.924m2.7,0.667l-4.272,-0l0.557,-0.568c7.069,-7.202 6.976,-15.369 6.878,-24.015c-0.029,-2.477 -0.058,-5.038 0.102,-7.535l0.02,-0.312l170.88,-0l0,0.333c0,1.807 0.043,3.633 0.084,5.4c0.09,3.921 0.184,7.977 -0.19,11.91c-0.744,7.819 -7.796,14.289 -16.052,14.73c-0.943,0.051 -1.881,0.055 -2.839,0.055l-155.168,0.002Zm60.038,7.166c9.263,-0 18.525,0.003 27.788,0.006c22.529,0.008 45.826,0.015 68.738,-0.024c13.714,-0.023 24.654,-10.721 24.907,-24.354c0.08,-4.33 0.062,-8.734 0.044,-12.995c-0.006,-1.501 -0.012,-3.001 -0.014,-4.501c-0.006,-4.105 -0.933,-5.054 -4.958,-5.078c-3.242,-0.019 -6.483,-0.015 -9.859,-0.011l-4.931,0.004l-0,-29.765c-0,-56.296 0,-112.594 -0.014,-168.89l-0,-0.445c0.001,-1.98 0.003,-4.027 -0.342,-5.961c-2.245,-12.59 -12.232,-20.727 -25.444,-20.73l-6.872,-0.001c-63.056,-0.013 -128.259,-0.026 -192.389,0.011c-7.14,0.004 -13.719,2.714 -18.525,7.631c-4.669,4.776 -7.264,11.291 -7.118,17.874c0.106,4.815 0.079,9.711 0.053,14.445c-0.013,2.339 -0.025,4.678 -0.023,7.016c0.004,4.388 0.946,5.336 5.308,5.34c5.849,0.006 11.699,0.006 17.546,0.006c5.346,-0.001 10.694,-0 16.041,0.004c0.677,0.001 1.358,0.042 2.079,0.084c0.351,0.02 0.716,0.042 1.1,0.061l0.318,0.015l-0.002,55.988c-0.002,46.166 -0.005,92.331 0.012,138.497c0.005,15.169 10.63,25.767 25.836,25.771c18.936,0.004 37.87,0.004 56.804,0.002l23.917,-0Zm55.421,0.679c-9.286,-0 -18.522,-0.003 -27.633,-0.007c-9.263,-0.002 -18.525,-0.006 -27.788,-0.006l-23.917,0.001c-18.934,0.001 -37.87,0.001 -56.804,-0.003c-15.351,-0.004 -26.498,-11.122 -26.503,-26.437c-0.017,-46.165 -0.014,-92.331 -0.012,-138.497l0.002,-55.354c-0.272,-0.014 -0.535,-0.029 -0.791,-0.045c-0.71,-0.041 -1.382,-0.081 -2.04,-0.082c-5.346,-0.005 -10.693,-0.003 -16.04,-0.005c-5.848,-0.002 -11.698,0 -17.546,-0.006c-4.742,-0.004 -5.97,-1.239 -5.975,-6.005c-0.002,-2.34 0.011,-4.681 0.023,-7.021c0.026,-4.73 0.054,-9.62 -0.052,-14.426c-0.15,-6.762 2.514,-13.452 7.307,-18.355c4.933,-5.046 11.681,-7.827 19.001,-7.832c64.131,-0.037 129.334,-0.023 192.391,-0.011l6.871,0.002c13.551,0.002 23.796,8.354 26.1,21.278c0.356,1.994 0.354,4.07 0.352,6.079l0,0.445c0.015,56.296 0.014,112.594 0.014,168.89l0,29.098l4.264,-0.004c3.378,-0.003 6.621,-0.008 9.864,0.011c4.406,0.027 5.614,1.261 5.62,5.743c0.002,1.5 0.009,3 0.015,4.5c0.017,4.264 0.036,8.673 -0.045,13.01c-0.259,14 -11.492,24.985 -25.572,25.009c-13.647,0.023 -27.43,0.03 -41.106,0.03" style="fill:#ffd100;fill-rule:nonzero;"/><path d="M185.473,189.246c4.166,9.806 8.412,19.804 12.688,29.868c0.403,-0.277 0.598,-0.34 0.669,-0.471c0.765,-1.402 1.51,-2.815 2.263,-4.224c1.798,-3.363 2.982,-3.852 6.581,-2.763c1.624,0.492 3.261,0.943 5.346,1.543c-3.894,-9.093 -7.543,-17.612 -10.979,-25.633c-2.912,-0.219 -5.321,-0.42 -7.733,-0.578c-3.06,-0.202 -6.416,-1.802 -8.835,2.258m-35.658,-1.624c-3.484,8.175 -7.099,16.658 -10.937,25.664c2.418,-0.744 4.273,-1.314 6.126,-1.886c2.411,-0.746 4.217,-0.066 5.395,2.222c0.94,1.826 1.935,3.625 3.178,5.944c4.466,-10.485 8.745,-20.53 12.992,-30.502c-1.84,-2.072 -3.674,-3.01 -6.516,-2.37c-3.148,0.708 -6.472,0.625 -10.238,0.928m13.618,-9.474c1.402,0.625 3.655,1.44 5.712,2.604c1.702,0.962 3.282,2.216 4.712,3.558c1.574,1.476 2.814,1.391 4.325,-0.058c4.793,-4.597 10.196,-7.228 17.066,-5.23c4.612,1.342 4.65,0.47 5.895,-3.561c1.85,-5.995 5.474,-9.892 11.628,-11.348c0.45,-0.107 0.854,-0.403 1.303,-0.521c1.992,-0.519 2.733,-1.762 2.303,-3.766c-0.176,-0.823 -0.201,-1.679 -0.396,-2.496c-1.211,-5.071 -0.59,-9.677 3.251,-13.544c0.723,-0.728 1.211,-1.69 1.935,-2.418c1.614,-1.621 1.733,-3.09 0.085,-4.837c-1.412,-1.496 -2.867,-3.094 -3.743,-4.916c-1.021,-2.121 -1.72,-4.499 -2.014,-6.834c-0.213,-1.698 0.444,-3.509 0.736,-5.267c0.648,-3.894 0.63,-4.428 -3.158,-5.534c-6.454,-1.886 -10.52,-5.814 -12.121,-12.328c-0.089,-0.359 -0.316,-0.682 -0.425,-1.038c-0.593,-1.946 -1.658,-2.498 -3.808,-2.095c-5.557,1.042 -10.906,1.725 -15.878,-2.727c-5.434,-4.864 -4.195,-4.618 -9.841,0.004c-3.523,2.884 -7.195,4.025 -11.703,3.417c-8.31,-1.12 -6.195,-2.732 -9.446,5.389c-1.628,4.065 -4.08,6.85 -8.21,8.202c-0.977,0.32 -1.883,0.911 -2.876,1.114c-2.923,0.598 -3.768,2.367 -3.141,5.102c0.126,0.548 0.193,1.11 0.323,1.657c1.182,4.971 0.571,9.505 -3.186,13.295c-0.395,0.398 -0.722,0.867 -1.066,1.314c-2.818,3.658 -2.966,3.79 0.057,7.236c3.601,4.104 5.889,8.449 4.354,14.078c-0.245,0.9 -0.31,1.85 -0.498,2.768c-0.465,2.27 0.17,3.788 2.624,4.368c6.813,1.614 11.179,5.762 12.842,12.64c0.087,0.36 0.298,0.69 0.399,1.049c0.546,1.941 1.844,2.344 3.688,1.997c2.392,-0.45 4.812,-0.75 8.272,-1.274m43.724,41.544c-1.744,3.311 -3.379,6.368 -4.966,9.45c-0.936,1.817 -1.945,3.524 -4.33,3.454c-2.388,-0.071 -3.284,-1.82 -4.084,-3.716c-4.644,-10.99 -9.314,-21.97 -13.978,-32.951c-0.362,-0.852 -0.752,-1.692 -1.085,-2.441l-5.495,0c-0.59,1.34 -1.278,2.856 -1.928,4.386c-4.376,10.288 -8.75,20.577 -13.105,30.873c-0.792,1.873 -1.621,3.697 -4.001,3.839c-2.53,0.15 -3.548,-1.66 -4.522,-3.577c-1.528,-3.011 -3.145,-5.977 -4.898,-9.291c-3.377,1.076 -6.741,2.129 -10.092,3.222c-2.038,0.664 -4.062,1.189 -5.71,-0.748c-1.539,-1.806 -0.84,-3.691 -0.042,-5.558c4.766,-11.143 9.525,-22.289 14.285,-33.434c1.479,-3.462 -0.753,-9.092 -4.186,-10.533c-1.901,-0.798 -3.844,-1.503 -5.721,-2.353c-4.282,-1.938 -6.394,-5.869 -5.738,-10.527c0.222,-1.579 0.414,-3.164 0.673,-4.737c0.385,-2.334 0.127,-4.422 -1.676,-6.21c-1.06,-1.05 -1.893,-2.334 -2.797,-3.537c-3.272,-4.355 -3.598,-8.88 0.16,-12.843c4.065,-4.288 4.93,-8.788 3.734,-14.332c-1.06,-4.92 1.246,-9.22 6.042,-10.719c5.55,-1.735 8.996,-4.736 10.696,-10.491c1.528,-5.168 5.794,-7.694 11.046,-6.4c5.869,1.446 10.151,-0.078 14.444,-3.986c3.741,-3.404 8.311,-3.466 12.071,-0.1c4.381,3.922 8.731,5.498 14.686,4.08c5.259,-1.251 9.38,1.308 10.995,6.514c1.65,5.321 4.639,8.378 9.947,10.13c6.201,2.047 7.947,6.213 6.449,13.909c-0.682,3.501 -0.497,6.452 2.265,8.967c0.753,0.686 1.295,1.608 1.913,2.438c3.251,4.364 3.584,8.904 -0.188,12.848c-4.103,4.29 -4.879,8.81 -3.718,14.335c1.014,4.822 -1.316,8.661 -5.784,10.705c-1.021,0.467 -2.046,0.989 -3.127,1.251c-3.614,0.877 -5.722,3.062 -6.763,6.659c-0.524,1.809 -0.723,3.268 0.066,5.075c4.812,11.02 9.486,22.101 14.226,33.153c0.844,1.968 1.594,3.946 -0.068,5.802c-1.686,1.884 -3.724,1.253 -5.748,0.582c-3.202,-1.06 -6.422,-2.061 -9.948,-3.188" style="fill:#ffd100;fill-rule:nonzero;"/><path d="M163.479,177.804l0.089,0.04c0.381,0.169 0.825,0.353 1.311,0.555c1.3,0.537 2.918,1.207 4.43,2.062c1.559,0.882 3.166,2.095 4.776,3.606c1.404,1.316 2.452,1.301 3.866,-0.056c5.658,-5.427 11.184,-7.113 17.39,-5.308c4.095,1.192 4.236,0.734 5.326,-2.83l0.157,-0.51c1.964,-6.363 5.847,-10.15 11.869,-11.574c0.197,-0.047 0.394,-0.141 0.603,-0.242c0.219,-0.104 0.444,-0.212 0.694,-0.277c1.799,-0.469 2.454,-1.541 2.061,-3.374c-0.086,-0.401 -0.137,-0.808 -0.186,-1.203c-0.056,-0.448 -0.109,-0.87 -0.208,-1.286c-1.36,-5.693 -0.268,-10.226 3.338,-13.856c0.343,-0.344 0.629,-0.743 0.932,-1.166c0.306,-0.428 0.622,-0.869 1.004,-1.252c1.533,-1.54 1.556,-2.808 0.078,-4.373c-1.501,-1.591 -2.921,-3.171 -3.801,-5c-1.037,-2.156 -1.744,-4.555 -2.043,-6.937c-0.158,-1.256 0.135,-2.56 0.42,-3.82c0.114,-0.51 0.232,-1.036 0.317,-1.544c0.619,-3.717 0.683,-4.106 -2.923,-5.16c-6.714,-1.962 -10.755,-6.073 -12.351,-12.568c-0.039,-0.159 -0.117,-0.321 -0.199,-0.493c-0.084,-0.173 -0.165,-0.347 -0.22,-0.528c-0.534,-1.75 -1.432,-2.239 -3.428,-1.864c-5.893,1.105 -11.178,1.658 -16.162,-2.806c-0.451,-0.403 -0.856,-0.771 -1.222,-1.105c-3.306,-3.007 -3.306,-3.008 -6.416,-0.365c-0.506,0.431 -1.088,0.925 -1.77,1.484c-3.652,2.989 -7.451,4.098 -11.96,3.489c-1.565,-0.21 -2.746,-0.436 -3.694,-0.616c-3.014,-0.574 -3.014,-0.575 -4.248,2.78c-0.296,0.805 -0.664,1.807 -1.149,3.019c-1.773,4.428 -4.447,7.095 -8.416,8.395c-0.388,0.127 -0.779,0.306 -1.157,0.478c-0.559,0.255 -1.138,0.52 -1.755,0.646c-1.287,0.263 -2.144,0.751 -2.62,1.491c-0.496,0.771 -0.581,1.82 -0.263,3.21c0.062,0.269 0.11,0.541 0.158,0.813c0.049,0.281 0.098,0.562 0.164,0.84c1.33,5.594 0.258,10.045 -3.274,13.608c-0.294,0.296 -0.546,0.632 -0.815,0.988l-0.291,0.383c-2.706,3.512 -2.706,3.512 0.112,6.724c3.148,3.591 6.137,8.107 4.424,14.385c-0.14,0.518 -0.219,1.046 -0.302,1.604c-0.056,0.383 -0.114,0.766 -0.191,1.144c-0.468,2.283 0.242,3.472 2.375,3.977c7.02,1.662 11.424,5.997 13.089,12.885c0.039,0.162 0.111,0.326 0.188,0.498c0.078,0.178 0.156,0.355 0.207,0.539c0.452,1.607 1.41,2.118 3.306,1.761c1.627,-0.306 3.296,-0.548 5.228,-0.827c0.933,-0.135 1.94,-0.281 3.055,-0.449l0.097,-0.015Zm12.51,7.911c-0.767,0 -1.534,-0.388 -2.361,-1.163c-1.571,-1.473 -3.134,-2.655 -4.647,-3.511c-1.476,-0.834 -3.073,-1.496 -4.356,-2.026c-0.455,-0.188 -0.874,-0.362 -1.239,-0.522c-1.079,0.162 -2.056,0.304 -2.963,0.435c-1.926,0.278 -3.588,0.518 -5.201,0.821c-1.403,0.264 -3.351,0.32 -4.07,-2.234c-0.043,-0.154 -0.11,-0.302 -0.175,-0.45c-0.086,-0.192 -0.174,-0.391 -0.227,-0.611c-1.601,-6.624 -5.839,-10.793 -12.595,-12.393c-2.47,-0.585 -3.411,-2.142 -2.874,-4.76c0.075,-0.366 0.13,-0.736 0.184,-1.108c0.083,-0.553 0.168,-1.126 0.319,-1.681c1.296,-4.752 0.015,-8.87 -4.283,-13.77c-3.105,-3.541 -2.964,-3.903 -0.138,-7.571l0.286,-0.377c0.27,-0.358 0.55,-0.728 0.875,-1.057c3.357,-3.386 4.371,-7.633 3.099,-12.984c-0.069,-0.29 -0.121,-0.584 -0.173,-0.878c-0.046,-0.261 -0.092,-0.522 -0.151,-0.78c-0.361,-1.574 -0.246,-2.79 0.352,-3.72c0.571,-0.886 1.596,-1.486 3.048,-1.784c0.542,-0.11 1.062,-0.348 1.612,-0.599c0.394,-0.18 0.802,-0.367 1.226,-0.505c3.767,-1.233 6.31,-3.778 8.004,-8.008c0.481,-1.204 0.848,-2.2 1.142,-3.002c1.389,-3.777 1.529,-3.868 4.999,-3.206c0.94,0.18 2.111,0.404 3.659,0.612c4.311,0.58 7.949,-0.482 11.448,-3.344c0.678,-0.556 1.258,-1.049 1.76,-1.476c3.456,-2.94 3.661,-2.93 7.296,0.38c0.366,0.332 0.77,0.699 1.218,1.101c4.759,4.259 9.878,3.719 15.595,2.647c2.338,-0.438 3.551,0.235 4.188,2.325c0.046,0.149 0.115,0.291 0.184,0.434c0.093,0.195 0.19,0.396 0.245,0.622c1.535,6.244 5.424,10.198 11.892,12.088c4.045,1.183 4.049,1.963 3.393,5.909c-0.088,0.526 -0.209,1.062 -0.325,1.58c-0.272,1.204 -0.552,2.45 -0.409,3.59c0.291,2.312 0.976,4.64 1.983,6.732c0.838,1.742 2.222,3.28 3.685,4.832c1.721,1.824 1.693,3.508 -0.091,5.3c-0.343,0.346 -0.63,0.746 -0.934,1.17c-0.305,0.426 -0.62,0.866 -1.001,1.248c-3.43,3.454 -4.465,7.782 -3.163,13.232c0.108,0.45 0.166,0.912 0.222,1.358c0.047,0.38 0.096,0.773 0.176,1.146c0.47,2.196 -0.386,3.595 -2.545,4.158c-0.188,0.049 -0.375,0.139 -0.574,0.234c-0.231,0.111 -0.471,0.225 -0.737,0.288c-5.773,1.366 -9.497,5.004 -11.386,11.122l-0.156,0.509c-1.152,3.762 -1.598,4.598 -6.15,3.275c-5.954,-1.733 -11.274,-0.096 -16.742,5.149c-0.851,0.816 -1.638,1.223 -2.424,1.223m9.857,3.558l12.467,29.347c0.018,-0.011 0.036,-0.023 0.054,-0.033c0.074,-0.045 0.159,-0.096 0.18,-0.118c0.53,-0.976 1.061,-1.972 1.591,-2.968l0.661,-1.239c1.861,-3.483 3.228,-4.058 6.972,-2.925c1.094,0.332 2.193,0.644 3.432,0.996l1.234,0.353l-10.623,-24.803l-2.498,-0.192c-1.779,-0.138 -3.404,-0.264 -5.03,-0.371c-0.617,-0.041 -1.25,-0.137 -1.862,-0.231c-2.447,-0.374 -4.763,-0.729 -6.578,2.184m12.167,30.347l-12.914,-30.4l0.087,-0.145c2.058,-3.453 4.864,-3.025 7.339,-2.645c0.598,0.091 1.216,0.186 1.805,0.225c1.629,0.108 3.256,0.234 5.038,0.372l2.9,0.222l11.335,26.464l-2.582,-0.738c-1.243,-0.354 -2.346,-0.668 -3.444,-1c-3.436,-1.04 -4.478,-0.602 -6.19,2.6l-0.66,1.24c-0.532,0.998 -1.063,1.996 -1.605,2.988c-0.087,0.159 -0.223,0.242 -0.411,0.355c-0.094,0.057 -0.213,0.129 -0.361,0.231l-0.337,0.231Zm-51.269,-8.843c1.704,0 3.028,0.901 3.951,2.692c0.632,1.23 1.29,2.446 2.032,3.819c0.261,0.481 0.532,0.982 0.815,1.509l12.637,-29.668c-1.892,-2.069 -3.608,-2.663 -6.054,-2.11c-2.19,0.493 -4.468,0.607 -6.881,0.729c-1.033,0.052 -2.1,0.105 -3.202,0.191l-10.577,24.818l5.44,-1.676c0.655,-0.202 1.268,-0.304 1.839,-0.304m6.867,9.559l-0.328,-0.612c-0.404,-0.755 -0.783,-1.456 -1.142,-2.119c-0.744,-1.376 -1.404,-2.597 -2.039,-3.831c-1.077,-2.091 -2.711,-2.761 -5,-2.056l-6.813,2.099l11.298,-26.51l0.201,-0.017c1.183,-0.095 2.321,-0.153 3.423,-0.208c2.382,-0.12 4.633,-0.233 6.768,-0.713c2.75,-0.616 4.73,0.098 6.84,2.474l0.14,0.157l-13.348,31.336Zm19.39,-27.181l5.93,-0l0.411,0.918c0.249,0.552 0.513,1.136 0.763,1.726l2.344,5.517c3.884,9.142 7.769,18.284 11.634,27.435c0.796,1.883 1.631,3.448 3.788,3.512c2.15,0.072 3.05,-1.381 4.024,-3.274c1.11,-2.157 2.244,-4.302 3.422,-6.53l1.675,-3.169l0.266,0.084c1.087,0.348 2.145,0.683 3.183,1.013c2.341,0.742 4.552,1.443 6.768,2.177c1.88,0.623 3.824,1.267 5.396,-0.489c1.469,-1.641 0.902,-3.365 0.01,-5.448c-1.55,-3.612 -3.092,-7.227 -4.635,-10.843c-3.123,-7.321 -6.351,-14.891 -9.591,-22.307c-0.812,-1.862 -0.645,-3.354 -0.081,-5.301c1.103,-3.809 3.329,-5.998 7.005,-6.891c0.88,-0.214 1.748,-0.617 2.586,-1.008l0.482,-0.223c4.503,-2.061 6.543,-5.827 5.596,-10.333c-1.27,-6.042 -0.097,-10.555 3.804,-14.634c4.372,-4.572 2.5,-9.276 0.161,-12.418c-0.17,-0.228 -0.335,-0.463 -0.499,-0.699c-0.437,-0.625 -0.85,-1.217 -1.371,-1.691c-3.125,-2.846 -2.951,-6.287 -2.369,-9.278c1.491,-7.657 -0.313,-11.576 -6.226,-13.528c-5.428,-1.793 -8.468,-4.887 -10.161,-10.348c-1.593,-5.139 -5.557,-7.49 -10.599,-6.288c-5.728,1.362 -10.209,0.12 -14.986,-4.157c-3.635,-3.253 -7.98,-3.218 -11.624,0.099c-4.665,4.245 -9.076,5.461 -14.748,4.063c-5.07,-1.247 -9.152,1.115 -10.646,6.171c-1.644,5.563 -5.012,8.868 -10.916,10.714c-4.578,1.43 -6.86,5.486 -5.816,10.33c1.288,5.976 0.111,10.488 -3.818,14.632c-3.454,3.642 -3.501,7.935 -0.136,12.413c0.224,0.298 0.443,0.601 0.662,0.903c0.651,0.897 1.324,1.826 2.104,2.598c1.69,1.676 2.236,3.68 1.77,6.5c-0.179,1.086 -0.329,2.198 -0.473,3.273c-0.066,0.486 -0.131,0.972 -0.199,1.457c-0.636,4.513 1.437,8.318 5.545,10.178c1.135,0.514 2.318,0.983 3.462,1.438c0.753,0.298 1.505,0.597 2.251,0.91c1.671,0.702 3.198,2.43 4.087,4.622c0.911,2.248 1.014,4.622 0.277,6.349l-1.082,2.532c-4.399,10.301 -8.798,20.603 -13.204,30.903c-0.842,1.97 -1.378,3.606 -0.011,5.211c1.477,1.734 3.223,1.342 5.353,0.647c2.36,-0.77 4.727,-1.52 7.1,-2.272l3.26,-1.034l0.13,0.246c0.53,1 1.046,1.968 1.552,2.915c1.173,2.199 2.281,4.275 3.349,6.38c1.052,2.071 1.978,3.539 4.205,3.395c2.073,-0.124 2.846,-1.585 3.714,-3.635c4.304,-10.177 8.628,-20.345 12.951,-30.513l0.153,-0.361c0.452,-1.063 0.922,-2.117 1.364,-3.111l0.654,-1.478Zm24.998,39.776c-0.049,-0 -0.098,-0.001 -0.148,-0.002c-2.549,-0.076 -3.527,-1.897 -4.382,-3.919c-3.865,-9.15 -7.749,-18.292 -11.634,-27.434l-2.343,-5.517c-0.249,-0.584 -0.511,-1.164 -0.757,-1.712l-0.237,-0.526l-5.062,0l-0.481,1.083c-0.44,0.991 -0.908,2.043 -1.358,3.101l-0.154,0.36c-4.323,10.168 -8.646,20.336 -12.95,30.512c-0.732,1.73 -1.642,3.884 -4.288,4.041c-2.85,0.177 -3.951,-2.009 -4.839,-3.758c-1.066,-2.099 -2.172,-4.173 -3.344,-6.369c-0.464,-0.87 -0.937,-1.757 -1.421,-2.67l-2.731,0.866c-2.371,0.751 -4.735,1.5 -7.094,2.27c-1.765,0.576 -4.184,1.364 -6.068,-0.849c-1.743,-2.047 -0.789,-4.277 -0.093,-5.905c4.405,-10.299 8.804,-20.602 13.203,-30.904l1.081,-2.531c0.67,-1.567 0.565,-3.75 -0.281,-5.837c-0.823,-2.032 -2.217,-3.623 -3.727,-4.257c-0.742,-0.311 -1.49,-0.609 -2.239,-0.906c-1.151,-0.457 -2.341,-0.929 -3.491,-1.45c-4.392,-1.989 -6.61,-6.055 -5.931,-10.877c0.068,-0.484 0.133,-0.969 0.199,-1.454c0.145,-1.08 0.296,-2.196 0.476,-3.292c0.427,-2.585 -0.061,-4.41 -1.582,-5.918c-0.818,-0.812 -1.507,-1.762 -2.174,-2.68c-0.216,-0.3 -0.434,-0.6 -0.655,-0.894c-3.535,-4.705 -3.469,-9.418 0.185,-13.272c3.762,-3.968 4.888,-8.296 3.65,-14.033c-1.104,-5.127 1.414,-9.59 6.268,-11.107c5.748,-1.798 8.88,-4.868 10.476,-10.267c1.581,-5.35 6.072,-7.955 11.445,-6.629c5.43,1.336 9.659,0.169 14.141,-3.909c3.862,-3.517 8.659,-3.557 12.517,-0.102c4.595,4.113 8.897,5.31 14.387,4.004c5.342,-1.272 9.706,1.311 11.39,6.74c1.622,5.23 4.533,8.195 9.734,9.912c6.225,2.055 8.22,6.328 6.671,14.288c-0.785,4.035 -0.159,6.544 2.163,8.658c0.576,0.525 1.03,1.174 1.469,1.803c0.16,0.229 0.321,0.458 0.487,0.681c3.524,4.733 3.447,9.449 -0.215,13.278c-3.783,3.956 -4.869,8.153 -3.633,14.036c1.017,4.837 -1.159,8.874 -5.971,11.077l-0.477,0.22c-0.868,0.405 -1.766,0.824 -2.71,1.052c-3.421,0.83 -5.493,2.873 -6.522,6.428c-0.522,1.801 -0.681,3.172 0.051,4.848c3.241,7.42 6.47,14.992 9.593,22.313c1.542,3.615 3.084,7.231 4.634,10.843c0.777,1.812 1.744,4.066 -0.126,6.155c-1.863,2.081 -4.115,1.334 -6.101,0.677c-2.212,-0.733 -4.421,-1.434 -6.761,-2.175c-0.953,-0.302 -1.924,-0.61 -2.918,-0.927l-1.414,2.676c-1.178,2.226 -2.31,4.368 -3.42,6.522c-0.792,1.54 -1.872,3.638 -4.488,3.638" style="fill:#ffd100;fill-rule:nonzero;"/><path d="M175.929,126.545c-1.775,7.454 -6.526,10.342 -13.884,10.26c6.644,3.988 7.711,9.394 5.326,16.251c5.78,-4.626 11.328,-4.92 17.216,-0.043c-2.79,-7.08 -0.752,-12.24 5.281,-16.445c-7.613,0.509 -11.953,-2.823 -13.939,-10.023m0.014,-13.504c1.616,1.506 3.093,2.386 3.85,3.686c1.794,3.076 3.152,6.404 4.894,9.513c0.493,0.879 1.624,1.748 2.6,1.947c3.492,0.71 7.094,0.924 10.55,1.757c1.538,0.371 3.586,1.51 4.017,2.773c0.427,1.252 -0.505,3.428 -1.52,4.618c-2.248,2.633 -5.035,4.801 -7.362,7.376c-0.791,0.876 -1.309,2.45 -1.182,3.622c0.386,3.54 1.366,7.02 1.662,10.562c0.121,1.454 -0.504,3.511 -1.549,4.36c-0.916,0.746 -3.094,0.656 -4.362,0.111c-3.353,-1.441 -6.462,-3.444 -9.784,-4.971c-0.988,-0.454 -2.532,-0.454 -3.526,-0.006c-3.246,1.467 -6.371,3.206 -9.51,4.902c-1.698,0.918 -3.611,1.492 -4.899,-0.085c-0.927,-1.136 -1.441,-3.022 -1.328,-4.512c0.247,-3.263 0.815,-6.538 1.628,-9.711c0.557,-2.172 -0.051,-3.508 -1.62,-4.887c-2.256,-1.983 -4.324,-4.181 -6.507,-6.251c-1.486,-1.41 -2.858,-2.897 -2.089,-5.132c0.803,-2.33 2.849,-2.682 5.001,-2.935c3.263,-0.384 6.53,-0.825 9.74,-1.504c0.981,-0.207 2.108,-1.093 2.604,-1.982c1.736,-3.113 3.088,-6.442 4.871,-9.524c0.755,-1.306 2.217,-2.204 3.821,-3.727" style="fill:#ffd100;fill-rule:nonzero;"/><path d="M163.172,137.126c5.299,3.582 6.852,8.397 4.847,15.014c5.422,-3.945 10.627,-3.982 15.855,-0.111c-2.049,-6.133 -0.475,-10.969 4.906,-15.081c-6.615,0.107 -10.737,-2.819 -12.831,-9.184c-1.825,6.142 -5.924,9.144 -12.777,9.362m22.2,16.97l-0.997,-0.827c-5.612,-4.648 -10.949,-4.633 -16.796,0.047l-0.903,0.723l0.38,-1.093c2.502,-7.192 0.855,-12.231 -5.182,-15.856l-1.054,-0.633l1.229,0.014c7.624,0.108 11.91,-3.094 13.556,-10.003l0.301,-1.262l0.345,1.25c1.974,7.159 6.292,10.272 13.595,9.779l1.197,-0.08l-0.984,0.686c-6.148,4.285 -7.788,9.385 -5.162,16.049l0.475,1.206Zm-9.426,-40.6c-0.465,0.428 -0.92,0.812 -1.329,1.157c-0.93,0.785 -1.732,1.463 -2.206,2.282c-0.939,1.623 -1.774,3.349 -2.582,5.018c-0.721,1.49 -1.466,3.03 -2.286,4.501c-0.558,1 -1.774,1.923 -2.827,2.146c-3.375,0.714 -6.833,1.163 -9.769,1.509c-2.239,0.263 -4.009,0.631 -4.726,2.713c-0.691,2.008 0.498,3.354 2.004,4.781c0.823,0.781 1.63,1.58 2.437,2.379c1.308,1.294 2.661,2.633 4.061,3.864c1.774,1.56 2.273,3.072 1.722,5.22c-0.836,3.264 -1.381,6.511 -1.619,9.654c-0.109,1.452 0.418,3.252 1.255,4.276c0.936,1.147 2.361,1.148 4.482,0.002l1.206,-0.654c2.696,-1.463 5.485,-2.976 8.325,-4.259c1.09,-0.49 2.724,-0.489 3.803,0.007c1.538,0.708 3.052,1.527 4.514,2.32c1.704,0.922 3.466,1.876 5.262,2.648c1.168,0.502 3.222,0.586 4.02,-0.063c0.976,-0.793 1.535,-2.783 1.427,-4.074c-0.157,-1.877 -0.515,-3.777 -0.861,-5.613c-0.304,-1.614 -0.619,-3.281 -0.8,-4.942c-0.138,-1.262 0.407,-2.93 1.266,-3.88c1.087,-1.204 2.288,-2.332 3.45,-3.424c1.332,-1.252 2.71,-2.546 3.905,-3.946c0.988,-1.157 1.83,-3.204 1.459,-4.294c-0.366,-1.072 -2.25,-2.187 -3.78,-2.556c-1.903,-0.459 -3.892,-0.734 -5.816,-1c-1.553,-0.214 -3.159,-0.436 -4.722,-0.755c-1.056,-0.215 -2.27,-1.123 -2.824,-2.111c-0.82,-1.462 -1.566,-2.994 -2.286,-4.476c-0.815,-1.674 -1.658,-3.404 -2.606,-5.031c-0.474,-0.813 -1.283,-1.481 -2.22,-2.255c-0.412,-0.341 -0.87,-0.72 -1.339,-1.144m-14.057,51.03c-0.813,-0 -1.646,-0.276 -2.325,-1.108c-0.949,-1.164 -1.526,-3.116 -1.403,-4.75c0.241,-3.18 0.792,-6.467 1.638,-9.768c0.492,-1.915 0.08,-3.149 -1.516,-4.553c-1.415,-1.244 -2.775,-2.59 -4.09,-3.892c-0.803,-0.795 -1.607,-1.591 -2.427,-2.368c-1.614,-1.531 -2.995,-3.102 -2.175,-5.483c0.91,-2.643 3.332,-2.928 5.278,-3.157c2.922,-0.344 6.36,-0.791 9.709,-1.499c0.87,-0.184 1.917,-0.983 2.383,-1.818c0.81,-1.455 1.551,-2.986 2.268,-4.467c0.813,-1.68 1.654,-3.417 2.605,-5.061c0.532,-0.92 1.376,-1.633 2.353,-2.459c0.491,-0.413 0.998,-0.841 1.527,-1.343l0.227,-0.216l0.23,0.213c0.534,0.497 1.044,0.92 1.539,1.328c0.986,0.815 1.837,1.518 2.371,2.434c0.961,1.648 1.809,3.391 2.629,5.076c0.717,1.473 1.458,2.995 2.268,4.442c0.454,0.809 1.519,1.609 2.375,1.783c1.544,0.314 3.139,0.534 4.682,0.748c1.939,0.268 3.945,0.546 5.88,1.012c1.464,0.353 3.752,1.513 4.255,2.99c0.465,1.363 -0.46,3.626 -1.583,4.941c-1.218,1.427 -2.61,2.735 -3.956,4c-1.152,1.082 -2.342,2.201 -3.412,3.383c-0.732,0.811 -1.214,2.288 -1.097,3.363c0.178,1.634 0.49,3.289 0.791,4.889c0.35,1.854 0.712,3.77 0.871,5.681c0.124,1.481 -0.479,3.679 -1.67,4.647c-1.005,0.816 -3.312,0.757 -4.705,0.158c-1.823,-0.784 -3.598,-1.745 -5.315,-2.674c-1.453,-0.788 -2.957,-1.602 -4.476,-2.3c-0.891,-0.41 -2.349,-0.411 -3.249,-0.004c-2.819,1.272 -5.596,2.779 -8.282,4.236l-1.207,0.654c-0.538,0.29 -1.742,0.941 -2.991,0.942" style="fill:#ffd100;fill-rule:nonzero;"/></g></svg>