<?xml version="1.0" encoding="UTF-8" standalone="no"?><!DOCTYPE svg PUBLIC "-//W3C//DTD SVG 1.1//EN" "http://www.w3.org/Graphics/SVG/1.1/DTD/svg11.dtd"><svg width="100%" height="100%" viewBox="0 0 334 334" version="1.1" xmlns="http://www.w3.org/2000/svg" xmlns:xlink="http://www.w3.org/1999/xlink" xml:space="preserve" xmlns:serif="http://www.serif.com/" style="fill-rule:evenodd;clip-rule:evenodd;stroke-linejoin:round;stroke-miterlimit:2;"><g id="Capa-1" serif:id="Capa 1"><path d="M62.94,81.609c0.282,0.458 0.726,1.182 1.173,1.904c5.546,8.954 8.7,18.672 9.704,29.167c1.2,12.533 -0.814,24.759 -2.925,37.021c-2.207,12.818 -4.793,25.618 -6.079,38.538c-1.784,17.95 3.35,34.12 15.211,47.966c7.259,8.474 15.883,15.326 25.252,21.27c18.823,11.944 39.293,20.356 60.206,27.78c0.861,0.305 2.051,0.133 2.951,-0.193c5.751,-2.083 11.512,-4.155 17.182,-6.447c18.594,-7.516 36.668,-16.032 52.687,-28.33c11.829,-9.08 21.633,-19.802 26.793,-34.123c4.863,-13.495 4.386,-27.309 2.094,-41.149c-2.252,-13.606 -5.059,-27.123 -7.113,-40.756c-1.815,-12.042 -1.676,-24.169 2.343,-35.83c2.06,-5.977 5.053,-11.632 7.49,-17.128c-9.776,-9.786 -19.76,-19.778 -29.124,-29.152c-3.81,3.472 -7.698,7.276 -11.858,10.753c-7.965,6.659 -17.052,10.365 -27.63,9.599c-8.751,-0.635 -16.296,-4.312 -23.014,-9.685c-4.086,-3.267 -7.828,-6.962 -11.732,-10.472c-2.84,2.705 -5.662,5.62 -8.72,8.26c-7.388,6.379 -15.632,11.079 -25.606,11.877c-11.283,0.902 -20.721,-3.412 -29.09,-10.592c-3.724,-3.196 -7.454,-6.387 -11.008,-9.432c-9.055,9.044 -19.042,19.02 -29.187,29.154m178.643,-47.434c1.689,1.43 3.487,2.75 5.051,4.306c12.121,12.055 24.198,24.154 36.283,36.244c3.936,3.936 4.17,6.73 0.817,11.088c-8.672,11.272 -11.761,24.139 -11.224,38.14c0.476,12.4 3.512,24.384 5.51,36.543c1.62,9.856 3.29,19.765 3.893,29.715c1.474,24.34 -7.565,44.648 -25.066,61.381c-13.315,12.73 -28.762,22.353 -45.376,29.958c-13.616,6.232 -27.675,11.509 -41.609,17.029c-1.693,0.67 -4.023,0.786 -5.731,0.201c-21.163,-7.24 -41.8,-15.705 -61.038,-27.262c-12.118,-7.281 -23.343,-15.676 -32.724,-26.373c-13.761,-15.692 -19.863,-33.989 -19.101,-54.768c0.509,-13.876 3.525,-27.348 6.125,-40.892c2.036,-10.605 3.846,-21.221 3.404,-32.09c-0.472,-11.626 -4.023,-22.144 -11.097,-31.436c-3.467,-4.554 -3.269,-7.218 0.789,-11.277c12.146,-12.151 24.282,-24.312 36.466,-36.427c1.502,-1.493 3.263,-2.726 4.904,-4.08l3.627,0c1.655,1.568 3.586,2.932 4.915,4.739c4.213,5.725 8.646,11.201 14.482,15.377c8.391,6.006 17.154,6.685 26.212,1.638c2.325,-1.296 4.728,-2.638 6.649,-4.435c4.333,-4.055 8.581,-8.237 12.503,-12.685c4.436,-5.031 8.511,-5.174 12.822,0.072c0.492,0.6 0.97,1.213 1.474,1.804c5.069,5.941 10.643,11.297 17.536,15.128c9.148,5.084 17.96,4.56 26.441,-1.568c5.815,-4.202 10.245,-9.678 14.464,-15.398c1.328,-1.8 3.297,-3.128 4.972,-4.672l3.627,0" style="fill:#ffd100;fill-rule:nonzero;"/><path d="M190.38,198.311c-0.073,-1.106 -0.056,-1.858 -0.181,-2.586c-1.089,-6.374 -2.138,-12.756 -3.339,-19.109c-0.614,-3.254 0.088,-5.871 2.569,-8.17c3.989,-3.694 7.822,-7.556 11.723,-11.346c1.338,-1.3 2.681,-2.595 4.348,-4.208c-7.469,-1.104 -14.347,-2.304 -21.273,-3.072c-3.971,-0.442 -6.412,-2.202 -8.07,-5.808c-2.936,-6.386 -6.191,-12.627 -9.489,-19.288c-3.431,6.928 -6.754,13.449 -9.891,20.058c-1.45,3.056 -3.696,4.506 -6.988,4.936c-7.143,0.936 -14.261,2.063 -20.844,3.032c4.261,4.534 8.339,9.485 13.062,13.714c4.109,3.677 5.349,7.478 4.064,12.814c-1.481,6.147 -2.219,12.473 -3.359,19.188c6.614,-3.474 12.864,-6.574 18.924,-10.01c3.557,-2.016 6.668,-1.952 10.198,0.048c5.982,3.386 12.149,6.447 18.546,9.807m8.858,19.112c-1.344,-0.522 -2.751,-0.924 -4.022,-1.586c-8.944,-4.656 -17.876,-9.337 -26.769,-14.091c-1.295,-0.692 -2.255,-0.675 -3.543,0.012c-8.896,4.749 -17.851,9.384 -26.758,14.112c-2.706,1.436 -5.39,1.972 -8.037,0.108c-2.633,-1.855 -3.138,-4.47 -2.583,-7.562c1.75,-9.755 3.332,-19.54 5.077,-29.296c0.334,-1.868 0.05,-3.166 -1.399,-4.546c-7.186,-6.844 -14.233,-13.832 -21.363,-20.734c-2.195,-2.125 -3.527,-4.462 -2.495,-7.607c1.024,-3.118 3.437,-4.326 6.462,-4.755c9.987,-1.415 19.979,-2.8 29.942,-4.364c1.11,-0.174 2.486,-1.204 3.001,-2.214c4.505,-8.824 8.881,-17.714 13.207,-26.628c1.396,-2.876 3.32,-4.825 6.684,-4.829c3.353,-0.003 5.306,1.896 6.708,4.786c4.324,8.915 8.803,17.755 13.104,26.681c0.746,1.548 1.735,2.106 3.316,2.326c9.992,1.388 19.972,2.85 29.958,4.274c2.948,0.42 5.29,1.692 6.248,4.672c0.95,2.954 -0.103,5.367 -2.266,7.461c-7.191,6.963 -14.313,13.998 -21.55,20.913c-1.336,1.276 -1.806,2.476 -1.482,4.283c1.688,9.417 3.29,18.849 4.903,28.279c0.203,1.186 0.423,2.394 0.415,3.59c-0.025,3.735 -2.916,6.483 -6.758,6.715" style="fill:#ffd100;fill-rule:nonzero;"/></g></svg>