<?xml version="1.0" encoding="UTF-8" standalone="no"?><!DOCTYPE svg PUBLIC "-//W3C//DTD SVG 1.1//EN" "http://www.w3.org/Graphics/SVG/1.1/DTD/svg11.dtd"><svg width="100%" height="100%" viewBox="0 0 334 334" version="1.1" xmlns="http://www.w3.org/2000/svg" xmlns:xlink="http://www.w3.org/1999/xlink" xml:space="preserve" xmlns:serif="http://www.serif.com/" style="fill-rule:evenodd;clip-rule:evenodd;stroke-linejoin:round;stroke-miterlimit:2;"><g id="Capa-1" serif:id="Capa 1"><path d="M187.975,269.171c-4.321,-1.861 -8.283,-3.567 -12.442,-5.357c0.352,4.814 0.688,9.414 1.066,14.588c4.029,-3.268 7.648,-6.206 11.376,-9.231m84.409,-205.449c1.524,-3.716 3.027,-7.203 4.379,-10.748c0.746,-1.954 -0.027,-3.566 -1.866,-4.43c-1.737,-0.816 -3.538,-0.45 -4.404,1.295c-1.75,3.525 -3.221,7.187 -4.873,10.945c2.418,1.05 4.49,1.95 6.764,2.938m-201.354,202.27c6.114,-4.863 12.499,-9.453 18.278,-14.708c3.982,-3.62 7.457,-7.93 10.556,-12.354c3.379,-4.824 2.148,-10.379 -2.389,-14.149c-4.706,-3.911 -10.004,-4.842 -15.819,-3.099c-16.904,5.069 -26.352,25.696 -10.626,44.31m204.411,-187.224c-7.642,-3.328 -15.021,-6.54 -22.549,-9.818c-7.832,18.267 -15.569,36.315 -23.378,54.528c7.646,3.27 15.116,6.466 22.73,9.722c7.771,-18.236 15.407,-36.153 23.197,-54.432m-49.82,54.178c-0.304,0.476 -0.472,0.674 -0.57,0.903c-16.399,38.235 -32.784,76.475 -49.22,114.694c-0.602,1.399 -0.263,2.115 0.795,2.993c5.379,4.464 11.529,7.14 18.409,8.253c2.181,0.353 3.406,-0.1 4.392,-2.434c14.37,-34.013 28.876,-67.968 43.345,-101.939c1.789,-4.201 3.557,-8.411 5.411,-12.798c-7.621,-3.267 -15.024,-6.44 -22.562,-9.672m50.558,-97.269c4.73,1.531 8.87,3.803 11.316,8.446c2.524,4.793 2.556,9.617 0.512,14.538c-1.208,2.909 -2.5,5.787 -3.6,8.735c-0.261,0.7 -0.23,1.955 0.218,2.403c3.996,3.992 4.753,8.475 2.44,13.563c-0.135,0.296 -0.146,0.648 -0.245,1.122c4.387,2.428 7.765,5.756 9.377,10.632c1.699,5.136 1.428,10.142 -1.382,14.77c-4.904,8.079 -10.075,15.979 -13.413,24.922c-3.051,8.176 -4.227,16.637 -4.697,25.263c-0.246,4.511 -3.384,7.035 -7.007,5.613c-2.477,-0.972 -3.339,-2.977 -3.26,-5.512c0.39,-12.576 2.635,-24.773 8.355,-36.055c3.228,-6.365 7.126,-12.393 10.778,-18.539c2.606,-4.384 1.636,-8.698 -2.892,-11.556c-0.432,0.886 -0.897,1.74 -1.277,2.63c-24.075,56.466 -48.13,112.941 -72.275,169.378c-0.829,1.936 -2.291,3.809 -3.915,5.163c-9.431,7.861 -18.995,15.563 -28.531,23.297c-0.92,0.746 -1.918,1.427 -2.961,1.986c-3.599,1.929 -5.72,1.566 -8.233,-1.634c-4.474,-5.698 -8.817,-11.5 -13.255,-17.226c-4.198,-5.417 -8.785,-10.432 -14.755,-13.992c-5.079,-3.028 -9.372,-2.89 -13.434,1.283c-3.849,3.955 -7.162,8.432 -10.734,12.661c-4.131,4.891 -8.878,8.97 -15.11,10.942c-8.211,2.599 -15.436,-0.136 -22.304,-4.372c-2.311,-1.425 -4.441,-3.144 -6.692,-4.756c-7.937,4.928 -15.869,9.9 -23.864,14.768c-1.262,0.768 -2.775,1.336 -4.232,1.519c-2.056,0.259 -3.574,-0.909 -4.462,-2.76c-0.938,-1.957 -0.728,-3.864 0.75,-5.448c0.798,-0.855 1.834,-1.517 2.838,-2.145c7.211,-4.513 14.441,-8.994 21.66,-13.483c-1.967,-3.548 -4.039,-6.762 -5.61,-10.204c-9.514,-20.845 1.798,-44.722 23.676,-50.169c11.947,-2.976 23.428,1.563 29.269,11.776c3.596,6.287 3.741,12.808 0.463,19.318c-4.083,8.108 -10.413,14.28 -17.378,19.859c-4.513,3.616 -9.15,7.077 -13.734,10.609c6.542,7.472 16.577,8.148 23.614,1.264c3.392,-3.318 6.03,-7.392 9.276,-10.876c3.117,-3.344 6.158,-7.052 9.973,-9.392c8.157,-5.001 16.236,-2.884 23.696,2.164c6.06,4.101 10.976,9.424 15.366,15.246c0.954,1.266 1.933,2.512 3.334,3.586c-0.283,-4.294 -0.548,-8.588 -0.856,-12.88c-0.232,-3.231 -0.681,-6.456 -0.722,-9.688c-0.025,-1.899 0.186,-3.965 0.922,-5.686c26.071,-60.984 52.226,-121.933 78.338,-182.899c2.369,-5.531 6.397,-8.205 12.62,-7.75c3.542,-8.341 5.749,-17.841 16.41,-20.434l5.629,0Z" style="fill:#0081b4;fill-rule:nonzero;"/></g></svg>