<?xml version="1.0" encoding="UTF-8" standalone="no"?><!DOCTYPE svg PUBLIC "-//W3C//DTD SVG 1.1//EN" "http://www.w3.org/Graphics/SVG/1.1/DTD/svg11.dtd"><svg width="100%" height="100%" viewBox="0 0 160 177" version="1.1" xmlns="http://www.w3.org/2000/svg" xmlns:xlink="http://www.w3.org/1999/xlink" xml:space="preserve" xmlns:serif="http://www.serif.com/" style="fill-rule:evenodd;clip-rule:evenodd;stroke-linejoin:round;stroke-miterlimit:2;"><g id="Capa-1" serif:id="Capa 1"><path d="M10.453,31.623c0.188,0.305 0.484,0.788 0.782,1.269c3.697,5.969 5.8,12.448 6.469,19.445c0.8,8.355 -0.542,16.506 -1.95,24.68c-1.471,8.546 -3.195,17.079 -4.052,25.692c-1.19,11.967 2.233,22.747 10.14,31.978c4.84,5.649 10.589,10.217 16.835,14.18c12.549,7.962 26.195,13.57 40.137,18.52c0.574,0.203 1.368,0.088 1.968,-0.129c3.834,-1.389 7.674,-2.77 11.454,-4.298c12.396,-5.011 24.446,-10.688 35.125,-18.887c7.886,-6.053 14.422,-13.201 17.862,-22.748c3.242,-8.997 2.924,-18.206 1.396,-27.433c-1.501,-9.071 -3.373,-18.082 -4.742,-27.171c-1.21,-8.028 -1.117,-16.112 1.562,-23.886c1.373,-3.985 3.369,-7.755 4.993,-11.419c-6.517,-6.524 -13.173,-13.185 -19.416,-19.435c-2.54,2.315 -5.132,4.851 -7.905,7.169c-5.31,4.439 -11.368,6.91 -18.42,6.399c-5.834,-0.423 -10.864,-2.874 -15.343,-6.456c-2.724,-2.178 -5.218,-4.642 -7.821,-6.982c-1.893,1.804 -3.775,3.747 -5.813,5.507c-4.926,4.253 -10.422,7.386 -17.071,7.918c-7.522,0.601 -13.814,-2.275 -19.393,-7.061c-2.483,-2.131 -4.97,-4.258 -7.339,-6.288c-6.037,6.029 -12.695,12.68 -19.458,19.436m119.095,-31.623c1.126,0.953 2.325,1.833 3.368,2.871c8.08,8.036 16.132,16.102 24.188,24.162c2.624,2.624 2.78,4.487 0.545,7.392c-5.781,7.515 -7.841,16.093 -7.483,25.427c0.318,8.267 2.342,16.256 3.674,24.362c1.08,6.571 2.193,13.177 2.595,19.81c0.983,16.227 -5.043,29.765 -16.711,40.921c-8.876,8.486 -19.174,14.902 -30.25,19.972c-9.078,4.154 -18.45,7.672 -27.74,11.352c-1.128,0.447 -2.682,0.524 -3.82,0.134c-14.109,-4.826 -27.867,-10.47 -40.692,-18.174c-8.079,-4.854 -15.562,-10.451 -21.816,-17.582c-9.174,-10.462 -13.242,-22.66 -12.734,-36.512c0.339,-9.251 2.35,-18.232 4.083,-27.262c1.357,-7.07 2.564,-14.147 2.269,-21.393c-0.314,-7.751 -2.682,-14.763 -7.398,-20.957c-2.311,-3.036 -2.179,-4.812 0.526,-7.518c8.098,-8.101 16.188,-16.208 24.311,-24.285c1.001,-0.995 2.175,-1.817 3.269,-2.72l2.418,-0c1.104,1.045 2.391,1.955 3.277,3.159c2.809,3.817 5.764,7.468 9.655,10.252c5.594,4.004 11.436,4.456 17.474,1.092c1.55,-0.864 3.152,-1.759 4.433,-2.957c2.889,-2.703 5.721,-5.491 8.335,-8.457c2.958,-3.354 5.674,-3.449 8.548,0.048c0.328,0.4 0.647,0.809 0.983,1.203c3.379,3.961 7.095,7.531 11.691,10.085c6.098,3.39 11.973,3.04 17.627,-1.045c3.877,-2.801 6.83,-6.452 9.643,-10.265c0.885,-1.2 2.198,-2.086 3.314,-3.115l2.418,-0" style="fill:#0081b4;fill-rule:nonzero;"/><path d="M95.413,109.424c-0.049,-0.737 -0.037,-1.239 -0.121,-1.724c-0.726,-4.249 -1.425,-8.504 -2.226,-12.739c-0.409,-2.17 0.059,-3.914 1.713,-5.447c2.659,-2.463 5.215,-5.037 7.815,-7.564c0.892,-0.867 1.788,-1.73 2.899,-2.805c-4.979,-0.736 -9.565,-1.536 -14.182,-2.048c-2.647,-0.295 -4.275,-1.468 -5.38,-3.872c-1.957,-4.258 -4.127,-8.418 -6.326,-12.859c-2.287,4.619 -4.503,8.966 -6.594,13.372c-0.967,2.037 -2.464,3.004 -4.659,3.291c-4.762,0.624 -9.507,1.375 -13.896,2.021c2.841,3.023 5.56,6.323 8.708,9.143c2.74,2.451 3.566,4.985 2.71,8.542c-0.988,4.098 -1.48,8.316 -2.24,12.792c4.41,-2.316 8.576,-4.382 12.616,-6.673c2.372,-1.344 4.446,-1.301 6.799,0.032c3.988,2.257 8.099,4.298 12.364,6.538m5.905,12.741c-0.896,-0.348 -1.834,-0.616 -2.681,-1.057c-5.963,-3.104 -11.917,-6.225 -17.846,-9.394c-0.863,-0.461 -1.503,-0.45 -2.362,0.008c-5.931,3.166 -11.901,6.256 -17.839,9.408c-1.804,0.957 -3.593,1.315 -5.358,0.072c-1.755,-1.237 -2.092,-2.98 -1.722,-5.041c1.167,-6.504 2.222,-13.027 3.385,-19.531c0.223,-1.245 0.033,-2.111 -0.933,-3.031c-4.79,-4.562 -9.488,-9.221 -14.242,-13.822c-1.463,-1.417 -2.351,-2.975 -1.663,-5.072c0.683,-2.078 2.291,-2.884 4.308,-3.17c6.658,-0.943 13.319,-1.866 19.961,-2.909c0.74,-0.116 1.658,-0.803 2.001,-1.476c3.003,-5.883 5.921,-11.809 8.805,-17.752c0.93,-1.917 2.213,-3.217 4.456,-3.219c2.235,-0.002 3.537,1.264 4.472,3.19c2.882,5.944 5.868,11.837 8.736,17.788c0.497,1.032 1.156,1.404 2.21,1.55c6.662,0.926 13.315,1.9 19.972,2.85c1.966,0.28 3.527,1.128 4.166,3.114c0.633,1.97 -0.069,3.578 -1.511,4.974c-4.794,4.642 -9.542,9.332 -14.367,13.942c-0.89,0.851 -1.204,1.651 -0.988,2.856c1.126,6.278 2.194,12.566 3.269,18.852c0.135,0.791 0.282,1.596 0.277,2.394c-0.017,2.49 -1.944,4.322 -4.506,4.476" style="fill:#0081b4;fill-rule:nonzero;"/></g></svg>